<?xml version="1.0" encoding="UTF-8"?>
<svg id="_レイヤー_2" data-name="レイヤー 2" xmlns="http://www.w3.org/2000/svg" viewBox="0 0 340.58 163.32">
  <g id="_レイヤー_1-2" data-name="レイヤー 1">
    <g>
      <path d="M2.89,9.36c1.28-2.04,3.15-4.08,5.19-5.61C11.31,1.36,15.56,0,20.07,0c11.06,0,17.77,5.95,17.77,15.73,0,8.33-5.44,14.2-14.46,15.39v.26c10.46.51,17.01,6.72,17.01,15.65,0,10.97-7.91,18.03-20.41,18.03-6.21,0-11.31-1.7-15.31-5.1-1.79-1.53-3.15-2.81-4.68-5.1l1.53-1.36c1.45,2.21,2.89,4,4.42,5.19,3.74,3.06,8.42,4.59,14.03,4.59,11.57,0,18.45-6.04,18.45-16.24,0-8.93-6.97-14.71-18.79-14.71h-6.38l.43-1.79h3.83c11.65,0,18.37-5.44,18.37-14.8,0-8.76-6.04-13.95-15.9-13.95-4.34,0-7.82,1.11-10.8,3.4-1.96,1.53-3.49,3.4-4.76,5.53l-1.53-1.36Z"/>
      <path d="M76.8.85c19.39,0,30.28,11.06,30.28,30.87s-11.23,32.49-29.6,32.49h-13.95c-3.06,0-4.76.09-6.55.26.17-1.79.26-3.49.26-6.38V6.97c0-2.98-.09-4.59-.26-6.38,1.79.17,3.49.26,6.55.26h13.27ZM77.48,62.42c17.18,0,27.64-11.57,27.64-30.7S94.91,2.64,76.71,2.64h-17.52v59.79h18.28Z"/>
      <path d="M166.83,155.83c1.36,2.21,2.81,4.51,4.51,6.63h-3.49c-.85-2.38-2.04-4.51-3.4-6.63l-14.97-23.56h-18.45v23.81c0,2.13,0,4.25.26,6.38h-2.38c.17-2.13.17-4.25.17-6.38v-50.86c0-4-.09-5.02-.26-6.38,1.87.17,3.57.26,6.55.26h12.67c12.33,0,19.13,5.61,19.13,15.9,0,9.1-4.85,15.14-15.65,16.84l15.31,23.98ZM146.33,130.58c12.33,0,18.88-5.36,18.88-15.48,0-9.36-6.12-14.2-17.52-14.2h-16.67v29.68h15.31Z"/>
      <path d="M218.2,140.44c0,13.86-7.82,22.88-19.82,22.88s-19.82-9.35-19.82-23.05,7.82-22.88,19.82-22.88,19.82,9.36,19.82,23.05ZM216.24,140.44c0-12.84-6.97-21.26-17.86-21.26s-17.86,8.16-17.86,21.09,6.97,21.26,17.86,21.26,17.86-8.16,17.86-21.09Z"/>
      <path d="M267.18,140.44c0,13.86-7.82,22.88-19.82,22.88s-19.82-9.35-19.82-23.05,7.82-22.88,19.82-22.88,19.82,9.36,19.82,23.05ZM265.23,140.44c0-12.84-6.97-21.26-17.86-21.26s-17.86,8.16-17.86,21.09,6.97,21.26,17.86,21.26,17.86-8.16,17.86-21.09Z"/>
      <path d="M338.11,162.47c.17-2.21.26-4,.26-6.46v-21.09c0-10.8-3.91-15.73-12.42-15.73-8.76.09-14.71,6.21-14.71,15.14v21.69c0,2.47.09,4.25.26,6.46h-2.47c.17-2.21.26-4,.26-6.46v-21.09c0-10.8-3.91-15.73-12.42-15.73-8.76.09-14.71,6.21-14.71,15.14v21.77c0,2.47.09,4.25.26,6.38h-2.47c.17-2.13.26-3.91.26-6.38v-31.47c0-2.55-.09-4.25-.26-6.38h2.21v3.57c0,2.3-.09,4.68-.34,6.38h.17c2.21-6.55,7.91-10.8,15.22-10.8s12.25,4,13.61,11.57c1.87-7.14,7.65-11.57,15.48-11.57,9.1,0,14.03,5.78,14.03,16.67v21.94c0,2.47.09,4.25.26,6.46h-2.47Z"/>
    </g>
    <path d="M149.68,38.32l2.03,2.03-36.49,36.35,36.49,36.49-2.03,2.03-36.49-36.49-36.49,36.49-2.03-2.03,36.49-36.49-36.49-36.35,2.03-2.03,36.49,36.49,36.49-36.49Z"/>
  </g>
</svg>