<?xml version="1.0" encoding="UTF-8"?>
<svg id="_レイヤー_2" data-name="レイヤー 2" xmlns="http://www.w3.org/2000/svg" viewBox="0 0 256.62 270.24">
  <g id="_レイヤー_1-2" data-name="レイヤー 1">
    <g>
      <path d="M6.48,10.96c1.49-2.39,3.69-4.78,6.08-6.58C16.34,1.59,21.33,0,26.61,0c12.96,0,20.83,6.98,20.83,18.44,0,9.77-6.38,16.64-16.94,18.04v.3c12.26.6,19.93,7.87,19.93,18.34,0,12.86-9.27,21.13-23.92,21.13-7.27,0-13.25-1.99-17.94-5.98-2.09-1.79-3.69-3.29-5.48-5.98l1.79-1.59c1.69,2.59,3.39,4.68,5.18,6.08,4.38,3.59,9.87,5.38,16.44,5.38,13.55,0,21.62-7.08,21.62-19.03,0-10.46-8.17-17.24-22.02-17.24h-7.47l.5-2.09h4.48c13.65,0,21.53-6.38,21.53-17.34,0-10.26-7.08-16.34-18.64-16.34-5.08,0-9.17,1.3-12.66,3.99-2.29,1.79-4.09,3.99-5.58,6.48l-1.79-1.59Z"/>
      <path d="M93.08,1c22.72,0,35.48,12.96,35.48,36.17s-13.15,38.07-34.68,38.07h-16.34c-3.59,0-5.58.1-7.67.3.2-2.09.3-4.09.3-7.47V8.17c0-3.49-.1-5.38-.3-7.47,2.09.2,4.09.3,7.67.3h15.55ZM93.88,73.15c20.13,0,32.39-13.55,32.39-35.98S114.31,3.09,92.98,3.09h-20.53v70.06h21.43Z"/>
      <path d="M53.02,164.47c1.59,2.59,3.29,5.28,5.28,7.77h-4.09c-1-2.79-2.39-5.28-3.99-7.77l-17.54-27.6H11.06v27.9c0,2.49,0,4.98.3,7.47h-2.79c.2-2.49.2-4.98.2-7.47v-59.59c0-4.68-.1-5.88-.3-7.47,2.19.2,4.19.3,7.67.3h14.85c14.45,0,22.42,6.58,22.42,18.64,0,10.66-5.68,17.74-18.34,19.73l17.94,28.1ZM29,134.87c14.45,0,22.12-6.28,22.12-18.14,0-10.96-7.18-16.64-20.53-16.64H11.06v34.78h17.94Z"/>
      <path d="M113.21,146.43c0,16.24-9.17,26.81-23.22,26.81s-23.22-10.96-23.22-27.01,9.17-26.81,23.22-26.81,23.22,10.96,23.22,27.01ZM110.92,146.43c0-15.05-8.17-24.91-20.93-24.91s-20.93,9.57-20.93,24.71,8.17,24.91,20.93,24.91,20.93-9.57,20.93-24.71Z"/>
      <path d="M170.61,146.43c0,16.24-9.17,26.81-23.22,26.81s-23.22-10.96-23.22-27.01,9.17-26.81,23.22-26.81,23.22,10.96,23.22,27.01ZM168.32,146.43c0-15.05-8.17-24.91-20.93-24.91s-20.93,9.57-20.93,24.71,8.17,24.91,20.93,24.91,20.93-9.57,20.93-24.71Z"/>
      <path d="M253.73,172.24c.2-2.59.3-4.68.3-7.57v-24.71c0-12.66-4.58-18.44-14.55-18.44-10.26.1-17.24,7.27-17.24,17.74v25.41c0,2.89.1,4.98.3,7.57h-2.89c.2-2.59.3-4.68.3-7.57v-24.71c0-12.66-4.58-18.44-14.55-18.44-10.26.1-17.24,7.27-17.24,17.74v25.51c0,2.89.1,4.98.3,7.47h-2.89c.2-2.49.3-4.58.3-7.47v-36.87c0-2.99-.1-4.98-.3-7.47h2.59v4.19c0,2.69-.1,5.48-.4,7.47h.2c2.59-7.67,9.27-12.66,17.84-12.66s14.35,4.68,15.94,13.55c2.19-8.37,8.97-13.55,18.14-13.55,10.66,0,16.44,6.78,16.44,19.53v25.71c0,2.89.1,4.98.3,7.57h-2.89Z"/>
      <path d="M50.43,195c2.49,0,4.98,0,7.47-.3v2.69c-2.49-.3-4.98-.3-7.47-.3h-20.33v64.68c0,2.49,0,4.98.3,7.47h-2.89c.3-2.49.3-4.98.3-7.47v-64.68H7.47c-2.49,0-4.98,0-7.47.3v-2.69c2.49.3,4.98.3,7.47.3h42.95Z"/>
      <path d="M101.85,243.43c0,16.24-9.17,26.81-23.22,26.81s-23.22-10.96-23.22-27.01,9.17-26.81,23.22-26.81,23.22,10.96,23.22,27.01ZM99.56,243.43c0-15.05-8.17-24.91-20.93-24.91s-20.93,9.57-20.93,24.71,8.17,24.91,20.93,24.91,20.93-9.57,20.93-24.71Z"/>
      <path d="M157.26,261.77c0,3.39.1,5.38.3,7.47h-2.59v-4.19c0-2.29.1-5.18.3-7.47h-.2c-2.79,7.67-10.07,12.66-19.53,12.66-11.66,0-18.44-6.88-18.44-19.03v-26.31c0-3.49-.1-5.38-.3-7.47h2.89c-.2,2.09-.3,3.99-.3,7.47v25.71c0,11.46,5.68,17.54,16.34,17.54,11.46-.1,19.23-7.27,19.23-17.74v-25.51c0-3.49-.1-5.38-.3-7.47h2.89c-.2,2.09-.3,3.99-.3,7.47v36.87Z"/>
      <path d="M178.59,230.17c2.69-8.17,9.37-13.65,17.24-13.65,3.09,0,5.98.5,7.87,1.5l-.8,2.19c-2.59-1.1-4.88-1.59-7.77-1.59-7.77,0-14.45,6.58-16.24,15.94v27.21c0,3.39.1,5.38.3,7.47h-2.89c.2-2.09.3-4.09.3-7.47v-36.87c0-3.49-.1-5.38-.3-7.47h2.59v3.89c0,3.29-.2,7.08-.5,8.87h.2Z"/>
    </g>
  </g>
</svg>