<?xml version="1.0" encoding="UTF-8"?>
<svg id="_レイヤー_2" data-name="レイヤー 2" xmlns="http://www.w3.org/2000/svg" viewBox="0 0 323.33 89.09">
  <g id="_レイヤー_1-2" data-name="レイヤー 1">
    <g>
      <path d="M3.39,17.54c1.49-2.39,3.69-4.78,6.08-6.58,3.79-2.79,8.77-4.38,14.05-4.38,12.96,0,20.83,6.98,20.83,18.44,0,9.77-6.38,16.64-16.94,18.04v.3c12.26.6,19.93,7.87,19.93,18.34,0,12.86-9.27,21.13-23.92,21.13-7.27,0-13.25-1.99-17.94-5.98-2.09-1.79-3.69-3.29-5.48-5.98l1.79-1.59c1.69,2.59,3.39,4.68,5.18,6.08,4.38,3.59,9.87,5.38,16.44,5.38,13.55,0,21.62-7.08,21.62-19.03,0-10.46-8.17-17.24-22.02-17.24h-7.47l.5-2.09h4.48c13.65,0,21.53-6.38,21.53-17.34,0-10.26-7.08-16.34-18.64-16.34-5.08,0-9.17,1.3-12.66,3.99-2.29,1.79-4.09,3.99-5.58,6.48l-1.79-1.59Z"/>
      <path d="M89.99,7.57c22.72,0,35.48,12.96,35.48,36.17s-13.15,38.07-34.68,38.07h-16.34c-3.59,0-5.58.1-7.67.3.2-2.09.3-4.09.3-7.47V14.75c0-3.49-.1-5.38-.3-7.47,2.09.2,4.09.3,7.67.3h15.55ZM90.79,79.72c20.13,0,32.39-13.55,32.39-35.98s-11.96-34.08-33.28-34.08h-20.53v70.06h21.43Z"/>
      <path d="M226.26,83.11c-2.69-.3-4.88-.3-7.47-.3h-72.45c-2.59,0-4.78,0-7.47.3v-2.59c2.69.3,4.88.3,7.47.3h33.78v-30.49h-23.42c-2.59,0-4.78,0-7.47.3v-2.59c2.69.3,4.88.3,7.47.3h23.42v-25.01h-29.9c-2.59,0-4.78,0-7.47.3v-2.59c2.69.3,4.88.3,7.47.3h63.68c2.59,0,4.78,0,7.47-.3v2.59c-2.69-.3-4.88-.3-7.47-.3h-31.59v25.01h25.71c2.59,0,4.78,0,7.47-.3v2.59c-2.69-.3-4.88-.3-7.47-.3h-25.71v30.49h36.47c2.59,0,4.78,0,7.47-.3v2.59ZM191.98,15.45c-6.88-5.28-15.94-10.46-23.62-13.65l1.3-1.69c7.57,3.19,16.54,8.17,23.52,13.45l-1.2,1.89Z"/>
      <path d="M278.38,70.85c-2.69-.3-4.88-.3-7.47-.3h-11.56v10.07c0,2.49,0,5.28.3,8.47h-2.79c.3-3.19.3-5.98.3-8.47v-10.07h-11.66c-2.59,0-4.78,0-7.47.3v-2.59c2.69.3,4.88.3,7.47.3h11.66v-11.76h-7.57c-2.99,0-4.98.1-7.37.3.3-2.59.3-5.18.3-7.77v-17.84c0-2.59,0-5.18-.3-7.77,2.39.2,4.38.3,7.37.3h7.57v-10.96h-11.06c-2.59,0-4.78,0-7.47.3v-2.59c2.69.3,4.88.3,7.47.3h11.06v-3.59c0-2.49,0-4.98-.3-7.47h2.79c-.2,2.49-.3,4.98-.3,7.47v3.59h10.86c2.59,0,4.78,0,7.47-.3v2.59c-2.69-.3-4.88-.3-7.47-.3h-10.86v10.96h7.97c2.99,0,4.98-.1,7.37-.3-.3,2.59-.3,5.18-.3,7.77v17.84c0,2.59,0,5.18.3,7.77-2.39-.2-4.38-.3-7.37-.3h-7.97v11.76h11.56c2.59,0,4.78,0,7.47-.3v2.59ZM244.7,38.96h12.46v-12.96h-12.46v12.96ZM257.15,40.96h-12.46v13.85h12.46v-13.85ZM259.35,38.96h12.86v-12.96h-12.86v12.96ZM272.2,40.96h-12.86v13.85h12.86v-13.85ZM320.83,82.71h-35.78v6.28h-2.49c.3-2.59.3-5.18.3-7.77V29.3c0-2.59,0-5.18-.3-7.77,2.59.3,5.18.3,7.77.3h10.96V7.77c0-2.49,0-4.98-.3-7.47h2.79c-.2,2.49-.3,4.98-.3,7.47v14.05h12.06c2.59,0,5.18,0,7.77-.3-.3,2.59-.3,5.18-.3,7.77v52.02c0,2.59,0,5.18.3,7.77h-2.49v-6.38ZM301.3,23.82h-16.24v26.71h16.24v-26.71ZM285.06,80.72h16.24v-28.2h-16.24v28.2ZM320.83,50.53v-26.71h-17.34v26.71h17.34ZM303.49,80.72h17.34v-28.2h-17.34v28.2Z"/>
    </g>
  </g>
</svg>