<?xml version="1.0" encoding="UTF-8"?>
<svg id="_レイヤー_2" data-name="レイヤー 2" xmlns="http://www.w3.org/2000/svg" viewBox="0 0 1005.6 1011.92">
  <defs>
    <style>
      .cls-1 {
        stroke-linecap: round;
        stroke-linejoin: round;
      }

      .cls-1, .cls-2, .cls-3 {
        fill: none;
        stroke: #000;
      }

      .cls-2, .cls-3 {
        stroke-miterlimit: 10;
      }

      .cls-3 {
        opacity: .5;
      }
    </style>
  </defs>
  <g id="_レイヤー_1-2" data-name="レイヤー 1">
    <rect class="cls-2" x="273.32" y="578.4" width="460.94" height="352.95"/>
    <rect class="cls-2" x="235.33" y="549.4" width="528.93" height="456.44"/>
    <path class="cls-2" d="M18.65,543.83h962.29v429.33c0,21.12-17.15,38.26-38.26,38.26H56.91c-21.12,0-38.26-17.15-38.26-38.26v-429.33h0Z"/>
    <circle class="cls-2" cx="867.01" cy="641.74" r="27.26"/>
    <circle class="cls-2" cx="814.04" cy="697.82" r="25.7"/>
    <circle class="cls-2" cx="921.62" cy="696.26" r="27.26"/>
    <circle class="cls-2" cx="868.66" cy="752.34" r="25.7"/>
    <rect class="cls-2" x="785.6" y="934.43" width="35.2" height="35.2" rx="5.09" ry="5.09"/>
    <rect class="cls-2" x="298.2" y="961.66" width="87.99" height="28.42"/>
    <rect class="cls-2" x="453.92" y="961.66" width="87.99" height="28.42"/>
    <rect class="cls-2" x="602.16" y="961.66" width="87.99" height="28.42"/>
    <polygon class="cls-2" points="199.28 841.83 158.26 841.83 158.26 801.13 115.96 801.13 115.96 841.83 73.33 841.83 73.33 884.14 115.96 884.14 115.96 925.16 158.26 925.16 158.26 884.14 199.28 884.14 199.28 841.83"/>
    <circle class="cls-2" cx="137.43" cy="680.95" r="54.8"/>
    <circle class="cls-2" cx="137.43" cy="680.95" r="88.93"/>
    <circle class="cls-2" cx="137.43" cy="680.95" r="78.84"/>
    <path class="cls-2" d="M56.79,482.47h892.02c31.07,0,56.29,25.22,56.29,56.29v5.07H.5v-5.07c0-31.07,25.22-56.29,56.29-56.29Z"/>
    <path class="cls-2" d="M65.74.5h880.59c29,0,52.54,23.54,52.54,52.54v429.42H13.19V53.04C13.19,24.04,36.74.5,65.74.5Z"/>
    <path class="cls-2" d="M72.5,19.19h862.63c25.28,0,45.81,20.53,45.81,45.81v413.16H26.69V65c0-25.28,20.53-45.81,45.81-45.81Z"/>
    <rect class="cls-2" x="216.27" y="102.1" width="572.08" height="353.86" rx="6.57" ry="6.57"/>
    <polygon class="cls-2" points="965.94 375.73 963.19 375.73 954.61 321.18 965.94 321.18 965.94 375.73"/>
    <polygon class="cls-2" points="997.97 319.34 996.59 319.34 996.59 300.34 976.36 300.34 976.36 319.34 974.99 319.34 974.99 324.86 976.36 324.86 976.36 343.86 996.59 343.86 996.59 324.86 997.97 324.86 997.97 319.34"/>
    <rect class="cls-2" x="946.54" y="505.84" width="13.93" height="14.86" rx="2.99" ry="2.99"/>
    <g>
      <rect class="cls-3" x="276.42" y="796.84" width="457.02" height="34.54" rx="7.44" ry="7.44"/>
      <rect class="cls-3" x="281.04" y="588.83" width="447.17" height="203.12" rx="9.61" ry="9.61"/>
      <rect class="cls-3" x="300.37" y="801.1" width="406.14" height="25.01" rx="2.18" ry="2.18"/>
      <rect class="cls-3" x="408.69" y="801.1" width="24.4" height="25.01" rx="2.18" ry="2.18"/>
      <g>
        <path class="cls-3" d="M501.01,842.8h-64.27c-12.13,0-21.97,9.84-21.97,21.97v41.07c0,12.13,9.84,21.97,21.97,21.97h64.27v-85.01Z"/>
        <path class="cls-3" d="M572.81,842.8h-68.04v85.01h68.04c12.13,0,21.97-9.84,21.97-21.97v-41.07c0-12.13-9.84-21.97-21.97-21.97Z"/>
      </g>
      <rect class="cls-2" x="530.94" y="861.5" width="10.91" height="46.59"/>
      <rect class="cls-2" x="553.65" y="861.5" width="10.91" height="46.59"/>
      <polygon class="cls-2" points="436.88 884.79 472.86 906.32 474.04 863.86 436.88 884.79"/>
      <rect class="cls-2" x="324.31" y="685.5" width="345.5" height="4.89"/>
      <polygon class="cls-2" points="508.16 619.84 516.47 619.84 503.9 606.32 491.67 619.84 499.65 619.84 499.65 756.27 491.51 756.27 503.74 769.79 516.3 756.27 508.16 756.27 508.16 619.84"/>
      <circle class="cls-2" cx="306.53" cy="666.52" r="6.11"/>
      <path class="cls-1" d="M306.53,675.2c3.38-.16,3.05,8.38,2.57,10.3s9.79,6.33,7.22,8.9-8.02-4.01-8.02-4.01c0,0,.32,8.76.96,13.58s.64,9,.48,11.25-1.13,2.57-2.25,2.57-1.61-1.45-1.61-3.05.32-8.2-1.77-8.36-1.49,5.4-5.02,7.65c-3.54,2.25-5.33,1.76-5.49-.17s4.3-3.09,5.27-6.79,2.83-4.55,2.83-10.18.8-9.48-.65-9.32-3.44,9.32-5.79,8.91c-4.08-.7.65-8.44,4.18-14.87s7.07-6.43,7.07-6.43Z"/>
      <circle class="cls-1" cx="701.87" cy="677.69" r="6.13"/>
      <path class="cls-1" d="M685.18,678.24c3.54-1.13,7.73,3.25,12.38,6.56,3.63,2.58,9.59,6.68,11.53,6.19s4.37-4.37,7.53-4.86,3.4,3.17,2.06,4.25-4.37,6.43-8.62,6.79c-4.25.36-6.68-4.01-10.08-3.52-3.4.49-8.13,4.61-7.41,6.07s8.26,4.98,9.29,6.92,1.52,12.38,0,13.6-4.31,1.09-5.16,0,.73-7.41-.36-9.96-7.89-7.41-9.83-7.28-7.77,7.53-10.81,8.01-10.2-8.86-10.81-10.56-.97-3.28.85-4.01,3.52.55,5.46,3.19,2.43,3.73,3.64,3.73,14.93-13.5,14.93-15.43-2.31-2.96-3.4-2.45-5.59,4.77-8.26,4.89-3.28-.88-3.04-2.45,7.04-8.73,10.08-9.7Z"/>
      <rect class="cls-1" x="605.67" y="840.58" width="127.78" height="42.33" rx="8.75" ry="8.75"/>
      <rect class="cls-1" x="605.67" y="885.47" width="127.78" height="42.33" rx="8.75" ry="8.75"/>
      <path class="cls-1" d="M282.93,888.42h110.28c4.83,0,8.75,3.92,8.75,8.75v32.69c0,.49-.4.9-.9.9h-114.74c-6.7,0-12.14-5.44-12.14-12.14v-21.45c0-4.83,3.92-8.75,8.75-8.75Z"/>
    </g>
  </g>
</svg>