<?xml version="1.0" encoding="UTF-8"?>
<svg id="_レイヤー_2" data-name="レイヤー 2" xmlns="http://www.w3.org/2000/svg" viewBox="0 0 197.25 113.83">
  <g id="_レイヤー_1-2" data-name="レイヤー 1">
    <g>
      <path d="M36.96,44.72c.59,1.63,1.31,3.26,2.09,4.9h-2.09c-.33-1.63-.98-3.26-1.57-4.9l-5.42-14.49H9.08l-5.42,14.49c-.59,1.63-1.18,3.26-1.57,4.9H0c.78-1.63,1.5-3.26,2.09-4.9L16.65,5.88c.59-1.63,1.31-3.26,1.7-4.9h2.35c.39,1.63,1.11,3.26,1.7,4.9l14.56,38.85ZM29.38,28.86L19.52,2.55l-9.92,26.31h19.78Z"/>
      <path d="M71.37,49.62c.13-1.44.2-2.74.2-4.9v-16.78c0-7.51-3.72-11.56-10.71-11.56-7.51.07-12.6,4.83-12.6,11.69v16.65c0,2.22.07,3.53.2,4.9h-1.89c.13-1.37.2-2.68.2-4.9v-24.16c0-2.29-.06-3.53-.2-4.9h1.7v2.74c0,1.5-.07,3.4-.26,4.9h.2c1.83-5.03,6.59-8.29,12.8-8.29,7.64,0,12.08,4.57,12.08,12.54v17.17c0,2.16.07,3.46.2,4.9h-1.89Z"/>
      <path d="M113.28,44.72c0,2.22.07,3.53.2,4.9l-1.7.07v-5.35c0-1.63.13-3.46.33-4.9h-.13c-1.89,6.86-6.86,10.84-13.84,10.84-9.14,0-15.08-6.99-15.08-17.76s6.07-17.56,15.08-17.56c6.92,0,11.88,4.11,13.78,10.9h.2c-.2-.91-.33-3.72-.33-6.2V4.9c0-2.29-.07-3.53-.2-4.9h1.89c-.13,1.37-.2,2.61-.2,4.9v39.83ZM111.78,32.52c0-9.86-5.35-16.19-13.65-16.19s-13.58,6.27-13.58,16.19,5.22,16.39,13.58,16.39,13.65-6.27,13.65-16.39Z"/>
      <path d="M55.04,108.28c0,1.63,0,3.26.2,4.9h-1.89c.2-1.63.2-3.26.2-4.9v-38.13c0-1.37,0-2.68.13-4.05-.72,1.63-1.11,2.48-2.02,4.31l-17.96,37.87c-.78,1.63-1.44,3.2-1.96,4.9h-2.02c-.52-1.7-1.18-3.26-1.96-4.9l-17.96-37.87c-.85-1.76-1.31-2.74-2.02-4.37.13,1.44.13,2.74.13,4.11v38.13c0,1.63,0,3.26.2,4.9h-1.89c.2-1.63.2-3.26.2-4.9v-38.85c0-1.63,0-3.26-.2-4.9h2.74c.52,1.63,1.31,3.26,2.09,4.9l17.96,37.8c.59,1.18,1.17,2.42,1.76,3.85.59-1.44,1.18-2.68,1.76-3.85l17.96-37.8c.78-1.63,1.57-3.26,2.09-4.9h2.68c-.2,1.63-.2,3.26-.2,4.9v38.85Z"/>
      <path d="M96.76,96.26c0,10.64-6.01,17.56-15.21,17.56s-15.21-7.18-15.21-17.69,6.01-17.56,15.21-17.56,15.21,7.18,15.21,17.69ZM95.26,96.26c0-9.86-5.35-16.32-13.71-16.32s-13.71,6.27-13.71,16.19,5.35,16.32,13.71,16.32,13.71-6.27,13.71-16.19Z"/>
      <path d="M108,87.58c1.76-5.35,6.14-8.94,11.3-8.94,2.02,0,3.92.33,5.16.98l-.52,1.44c-1.7-.72-3.2-1.04-5.09-1.04-5.09,0-9.47,4.31-10.64,10.45v17.83c0,2.22.07,3.53.2,4.9h-1.89c.13-1.37.2-2.68.2-4.9v-24.16c0-2.29-.07-3.53-.2-4.9h1.7v2.55c0,2.15-.13,4.64-.33,5.81h.13Z"/>
      <path d="M128.24,95.68v.33c0,9.92,5.75,16.45,14.5,16.45,3.46,0,6.79-.98,9.27-2.81,1.04-.78,1.89-1.63,2.61-2.61l1.04.98c-.59.72-1.63,1.7-2.48,2.35-2.74,2.22-6.46,3.46-10.45,3.46-9.47,0-16-7.25-16-17.83s5.88-17.63,15.47-17.63,14.3,5.81,14.3,16.13v1.18h-28.27ZM155.01,94.37c0-9.4-4.57-14.63-12.86-14.63s-13.32,5.48-13.84,14.63h26.7Z"/>
      <path d="M168.13,111.8c0,1.11-.91,2.02-2.09,2.02-1.11,0-2.02-.91-2.02-2.02,0-1.17.92-2.09,2.02-2.09,1.18,0,2.09.91,2.09,2.09Z"/>
      <path d="M182.69,111.8c0,1.11-.91,2.02-2.09,2.02-1.11,0-2.02-.91-2.02-2.02,0-1.17.91-2.09,2.02-2.09,1.17,0,2.09.91,2.09,2.09Z"/>
      <path d="M197.25,111.8c0,1.11-.91,2.02-2.09,2.02-1.11,0-2.02-.91-2.02-2.02,0-1.17.92-2.09,2.02-2.09,1.18,0,2.09.91,2.09,2.09Z"/>
    </g>
  </g>
</svg>