<?xml version="1.0" encoding="UTF-8"?>
<svg id="_レイヤー_2" data-name="レイヤー 2" xmlns="http://www.w3.org/2000/svg" viewBox="0 0 514.53 102.13">
  <defs>
    <style>
      .cls-1 {
        stroke-width: .25px;
      }

      .cls-1, .cls-2, .cls-3 {
        stroke-miterlimit: 10;
      }

      .cls-1, .cls-3 {
        stroke: #000;
      }

      .cls-2 {
        fill: #f7f3ed;
        stroke: #fff;
        stroke-width: .5px;
      }

      .cls-3 {
        fill: none;
      }
    </style>
  </defs>
  <g id="_レイヤー_1-2" data-name="レイヤー 1">
    <rect x="263.53" width="71.11" height="71.11"/>
    <polyline class="cls-3" points="184.06 37.53 71.48 37.53 .31 94.36"/>
    <g>
      <path d="M255.99,14.27c-3.21,3.9-6.83,7.87-9.96,10.59,4.39,3.27,9.27,5.99,14.42,7.8-.42.42-.77.91-.98,1.39-12.47-4.53-24.04-14.63-30.45-27.1-5.85,11.63-17.14,21.39-30.52,27.45-.21-.49-.56-.91-1.04-1.32,6.76-2.93,12.82-6.76,17.98-11.29-3.14-3.21-7.52-6.97-11.15-9.54l1.11-1.05c3.48,2.44,7.73,6.27,11.22,9.55,4.53-4.18,8.22-8.92,10.8-13.93h-15.26c-1.81,0-3.34,0-5.23.21v-1.81c1.88.21,3.41.21,5.23.21h12.68c1.81,0,3.34,0,5.23-.21.28.84.7,1.88,1.11,2.72,1.46,2.72,3.27,5.36,5.36,7.94,2.86-2.51,6.34-6.48,8.78-10.17l1.32,1.04c-2.79,3.62-6.34,7.52-9.27,10.1,2.23,2.58,4.81,4.95,7.52,7.11,3.14-2.72,6.9-6.76,9.75-10.73l1.32,1.05ZM221.16,43.19c-2.02,10.45-7.73,17.14-20,21.04-.21-.56-.56-1.05-1.04-1.39,11.98-3.41,17.49-9.68,19.51-19.65h-13.1c-1.81,0-3.34,0-5.23.21v-1.81c1.88.21,3.41.21,5.23.21h13.38c.42-2.86.63-5.92.63-9.34v-3.14h-2.37c-1.67,0-3.14,0-4.88.21v-1.81c1.74.21,3.2.21,4.88.21h21.6c1.67,0,3.14,0,4.88-.21v1.81c-1.74-.21-3.21-.21-4.88-.21h-3.14v12.47h14.98c1.81,0,3.34,0,5.23-.21v1.81c-1.88-.21-3.41-.21-5.23-.21h-14.98v14.56c0,3.34.35,3.83,8.71,3.83s9.34-.49,10.45-3.13c.84-1.95,1.25-4.46,1.39-6.97.49.42.98.63,1.46.77-.21,2.16-.7,4.74-1.39,6.55-1.32,3.41-2.86,4.18-11.91,4.18s-10.24-.91-10.24-4.95v-14.84h-13.93ZM222.06,32.46c0,3.41-.21,6.48-.63,9.34h13.66v-12.47h-13.03v3.14Z"/>
      <path class="cls-2" d="M283.86,32.25c-.7,2.3-1.18,4.18-1.81,6.48-.42,1.6-.91,3.21-1.46,4.74,4.18,8.71,9.89,13.93,17.63,15.95V26.26h-14.98c-1.81,0-3.62,0-5.43.21.21-1.81.21-3.62.21-5.43v-9.34c0-1.81,0-3.62-.21-5.43,1.81.21,3.62.21,5.43.21h31.7c1.81,0,3.62,0,5.43-.21-.21,1.81-.21,3.62-.21,5.43v9.34c0,1.81,0,3.62.21,5.43-1.81-.21-3.62-.21-5.43-.21h-15.19v14.28h19.44c1.81,0,3.34,0,5.23-.21v1.81c-1.88-.21-3.41-.21-5.23-.21h-19.44v17.84c4.74,1.04,11.57,1.53,17.77,1.53,3.97,0,8.29-.21,12.33-.63-.28.49-.49,1.04-.63,1.53-3.48.28-8.01.49-11.84.49-6.97,0-14.21-.56-19.3-1.88-8.01-2.09-14.14-7.39-18.04-15.61-2.65,7.18-6.34,13.24-11.29,18.39-.42-.42-.84-.77-1.39-.98,6.62-6.48,10.59-14.56,13.24-24.25.63-2.37,1.05-4.32,1.32-6.55l1.95.42ZM318.63,24.86V7.86h-39.09v17h39.09Z"/>
    </g>
    <g>
      <path class="cls-1" d="M225.26,93.18c-1.25,2.27-3.42,4.65-5.65,6.22-.1-.18-.27-.33-.43-.42,2.22-1.52,4.42-3.82,5.77-6.27h-3.35c-.7,0-1.17,0-1.8.07v-.65c.62.08,1.1.08,1.8.08h3.57v-1.02c0-.62,0-1.25-.08-1.87h.7c-.05.62-.07,1.25-.07,1.87v1.02h3.05c.77,0,1.3,0,1.97-.08v.65c-.67-.07-1.2-.07-1.97-.07h-2.87c.92,1.42,2.4,2.9,3.92,3.87-.17.15-.32.32-.4.47-1.5-1.07-2.92-2.62-3.77-3.97l.08,2.32v4.37c0,.62,0,1.32.07,2.12h-.7c.08-.8.08-1.5.08-2.12v-4.37l.07-2.22ZM230.88,88.48c-.67-.08-1.2-.08-1.97-.08h-7.3c-.7,0-1.17,0-1.8.08v-.65c.62.08,1.1.08,1.8.08h4.72c.73-1.27,1.35-2.75,1.85-4.5l.55.2c-.52,1.65-1.17,3.12-1.85,4.3h2.02c.77,0,1.3,0,1.97-.08v.65ZM230.5,82.74c-.67-.08-1.2-.08-1.97-.08h-6.57c-.7,0-1.17,0-1.8.08v-.65c.62.07,1.1.07,1.8.07h3.22v-.77c0-.62,0-1.25-.08-1.87h.7c-.05.62-.07,1.25-.07,1.87v.77h2.8c.77,0,1.3,0,1.97-.07v.65ZM223.53,87.21c-.38-1.22-.85-2.35-1.52-3.52l.5-.23c.65,1.22,1.1,2.27,1.52,3.47l-.5.27ZM237.7,101.81c.08-.67.08-1.22.08-1.87v-11.9h-4.92c-.02,7.17-1.1,11.1-3.25,13.67-.12-.15-.27-.27-.48-.38,2.12-2.45,3.17-6.32,3.17-13.7v-3.52c0-.65,0-1.32-.08-1.97,2.3-.17,5.05-.82,6.87-1.57.57-.22,1.1-.5,1.45-.75l.47.52c-.55.22-1.07.47-1.65.7-1.92.77-4.37,1.32-6.52,1.57v4.92h7.3c.65,0,1.2,0,1.87-.08v.65c-.67-.08-1.22-.08-1.87-.08h-1.82v11.9c0,.65,0,1.2.08,1.87h-.7Z"/>
      <path class="cls-1" d="M250.38,81.01c-.1.6-.15,1.22-.17,1.82-.12,4-.25,8.25-.25,10.77,0,4.77,1.4,6.3,5,6.3,1.97,0,4.47-.83,6.32-2.97,1.05-1.22,2-3.17,2.5-5.27.15.2.32.32.47.42-.55,1.92-1.5,3.95-2.57,5.2-1.87,2.2-4.57,3.15-6.75,3.15-3.87,0-5.52-1.7-5.52-6.85,0-2.55.12-6.8.25-10.77,0-.42.02-.85.02-1.3v-.52l.7.02Z"/>
      <path class="cls-1" d="M272.76,85.54c0,6,.92,9.62,2.02,11.42.75,1.23,1.38,1.52,1.75,1.52s.85-.25,1.55-1.47c.52-.92,1.1-2.55,1.47-4.25.12.17.3.32.48.4-.4,1.55-.97,3.17-1.5,4.1-.83,1.45-1.38,1.75-2,1.75s-1.32-.35-2.22-1.77c-1.2-1.9-2.1-5.55-2.1-11.75v-.8c0-.92-.02-1.4-.07-1.87h.7c-.05.48-.08.95-.08,1.87v.85ZM290.28,96.46c-.27-1.92-.82-3.87-1.57-5.72-.92-2.25-2.17-4.35-3.77-6.15l.5-.27c1.55,1.8,2.85,3.97,3.77,6.22.77,1.87,1.32,3.85,1.62,5.7l-.55.23Z"/>
      <path class="cls-1" d="M308.68,91.86c-1.27.2-2.8.3-4.8.3-.67,0-1.32-.02-1.92-.07-.1,1-.15,1.82-.15,2.45,0,3.7,1.62,5.2,5.32,5.2s6.22-2,6.22-4.95c0-1.27-.65-3.12-2.52-4.6.23-.03.45-.1.6-.2,1.67,1.47,2.47,3.35,2.47,4.8,0,3.2-2.8,5.47-6.77,5.47s-5.87-1.72-5.87-5.7c0-.65.05-1.47.15-2.52-1.32-.12-2.47-.32-3.35-.55-.65-.17-1.07-.25-1.42-.3l.12-.65c1.25.45,2.87.8,4.7.98.15-1.45.4-3.27.72-5.45-1.17-.12-2.27-.3-3.3-.52-.5-.1-.98-.23-1.42-.3l.08-.65c1.25.42,2.92.77,4.75.95.15-.92.35-2.22.52-3.47.1-.67.17-1.25.2-1.8l.7.08c-.12.52-.25,1.12-.35,1.82-.15,1.05-.35,2.35-.52,3.42.92.08,1.87.12,2.8.12,1.3,0,2.62-.1,3.65-.3l-.02.57c-1.05.17-2.25.25-3.6.25-1.02,0-2-.05-2.9-.12-.35,2.15-.6,3.97-.75,5.45.6.05,1.22.08,1.87.08,1.95,0,3.47-.1,4.82-.38l-.02.6Z"/>
      <path class="cls-1" d="M337.38,97.21c-1.5,1.35-3.55,2.3-5.82,2.8-.05-.17-.15-.35-.32-.52,2.35-.42,4.3-1.4,5.72-2.65,1.7-1.47,2.77-3.55,2.77-6.22,0-5.02-4.07-7.52-8.25-7.62-.73,6.52-2.4,11.27-4.15,13.4-.9,1.1-1.65,1.5-2.5,1.5-2.02,0-3.67-2.37-3.67-5.52,0-5.72,4.57-9.87,10.27-9.87,4.42,0,8.85,2.8,8.85,8.12,0,2.8-1.12,5-2.9,6.6ZM321.71,92.36c0,3.05,1.5,4.97,3.1,4.97.7,0,1.4-.38,2.1-1.25,1.7-2.15,3.32-6.77,4.02-13.1-4.95.15-9.22,4-9.22,9.37Z"/>
      <path class="cls-1" d="M364.4,88.98c-.57.17-1.07.35-1.65.55-1.55.52-3.02,1.1-5.1,1.95.05.45.07.95.07,1.5v2.2c0,.8,0,1.25.02,1.62h-.67c.08-.42.1-1,.1-2.62v-1.2c0-.48-.02-.9-.05-1.27-1.47.62-2.65,1.25-3.52,1.85-1.77,1.2-2.2,2.27-2.2,3.25,0,1.82,1.42,3,5.52,3,1.52,0,3.42-.12,5.05-.4.57-.1,1.17-.23,1.62-.38l.1.62c-.38.05-.97.17-1.6.27-1.7.27-3.6.4-5.15.4-4.4,0-6.1-1.35-6.1-3.52,0-1.12.5-2.37,2.42-3.65.95-.62,2.15-1.3,3.8-2-.25-1.9-.97-2.62-2.47-2.62-2.02,0-4,.98-5.42,2.22-.5.42-1.1.97-1.65,1.55-.3.3-.6.62-.83.9l-.47-.47c.27-.23.57-.5.87-.8.55-.58,1.1-1.2,1.55-1.75,1.17-1.42,2.52-3.37,3.72-5.77h-.55c-1.42,0-2.7-.05-3.45-.07-.6-.02-1.02-.05-1.62-.05l.02-.67c.6.1,1,.12,1.6.18.8.07,2.05.1,3.52.1h.75c.3-.62.6-1.27.88-1.95.25-.6.45-1.22.57-1.77l.7.18c-.2.42-.5,1.17-.75,1.77-.25.6-.52,1.2-.8,1.75,2.4-.05,5.02-.22,7.17-.57.58-.1,1.02-.17,1.7-.38l.1.65c-.62.08-1.17.17-1.7.25-2.3.35-5.05.55-7.52.6-1.15,2.3-2.4,4.15-3.57,5.55l.05.02c1.42-1.17,3.3-1.95,5.25-1.95,1.65,0,2.55.9,2.87,2.92,1.9-.8,3.42-1.4,4.97-1.95.55-.2,1.08-.4,1.55-.65l.27.62Z"/>
      <path class="cls-1" d="M381.63,86.06c0,1.22-.02,2.3-.1,3.27h7.2c.65,0,1.2,0,1.87-.07v.72c-.67-.07-1.22-.07-1.87-.07h-7.25c-.25,3.02-.85,4.87-1.87,6.35-1.45,2.1-3.65,3.7-5.95,4.65-.1-.2-.23-.35-.42-.5,2.37-.9,4.5-2.47,5.9-4.47.97-1.4,1.55-3.17,1.8-6.02h-8.22c-.65,0-1.2,0-1.87.07v-.72c.67.07,1.22.07,1.87.07h8.25c.07-.97.1-2.07.1-3.32v-2.37c-2.5.47-5.3.77-7.97.85-.05-.2-.12-.42-.27-.6,5.1-.07,10.17-.9,13.42-2.25.6-.25,1.02-.45,1.42-.72l.45.55c-.5.2-1.07.45-1.55.65-1.32.55-3.02,1.02-4.92,1.42v2.52Z"/>
      <path class="cls-1" d="M415.73,91.03c-.67-.08-1.22-.08-1.87-.08h-16.37c-.65,0-1.2,0-1.87.08v-.72c.67.07,1.22.07,1.87.07h16.37c.65,0,1.2,0,1.87-.07v.72Z"/>
      <path class="cls-1" d="M440.1,100.31c-.55-1.23-1.1-2.42-1.72-3.62-5.35.98-10.72,1.7-16.07,2.17-.65.05-1.27.12-1.92.22l-.1-.75h.52c.47,0,.95-.02,1.42-.05.35-.02.73-.07,1.07-.1,2.05-4.45,4.17-10.37,5.6-15.47.2-.7.38-1.42.48-2.12l.72.2c-.22.65-.42,1.4-.62,2.1-1.4,5.05-3.57,10.92-5.52,15.25,4.75-.45,9.52-1.1,14.17-1.95-1.25-2.45-2.67-4.85-4.25-7.17l.55-.25c2.37,3.57,4.45,7.37,6.22,11.25l-.55.3Z"/>
      <path class="cls-1" d="M464.93,83.71c-1.12.05-2.47.27-3.17.5-4.85,1.6-7.85,5.27-7.85,8.87,0,2.77,1.85,4.92,5.45,5.9.82.22,1.62.4,2.32.47l-.15.67c-.75-.2-1.52-.4-2.32-.62-3.87-1.1-5.85-3.45-5.85-6.37,0-3.87,2.9-7.47,8.12-9.27v-.05c-.55.05-1.4.12-3.17.22-4.1.25-8.32.58-10.2.73-.75.05-1.52.12-2.15.2l-.05-.65c.77,0,1.38-.03,2.15-.08,3.82-.3,9.72-.7,14.65-.95,1.35-.08,1.85-.12,2.17-.17l.05.6ZM463.95,91.61c-.6-1.27-1.47-2.65-2.3-3.62l.45-.23c.8.98,1.7,2.35,2.3,3.6l-.45.25ZM466.65,90.18c-.65-1.23-1.55-2.57-2.4-3.52l.45-.23c.83.95,1.75,2.3,2.4,3.5l-.45.25Z"/>
      <path class="cls-1" d="M473.58,101.88c.07-.62.07-1.25.07-1.87v-9.75l.08-4.22c-1.17,1.87-2.52,3.6-4.02,5.1-.1-.15-.27-.27-.45-.38,2.62-2.55,4.85-5.87,6.2-9.35.22-.55.45-1.25.6-1.9l.65.22c-.27.6-.55,1.3-.77,1.85-.47,1.25-1.05,2.45-1.72,3.62v14.8c0,.62.02,1.25.08,1.87h-.7ZM482.73,102.01c.08-.67.08-1.22.08-1.87v-15.87h-2.3c-1.05,2.22-2.47,4.52-4,6.17-.12-.12-.3-.25-.5-.32,2.42-2.5,4.32-6.22,5.17-8.97.18-.52.33-1.12.4-1.65l.67.2c-.23.47-.38,1-.58,1.6-.25.77-.57,1.6-.95,2.47h8.95c.65,0,1.2,0,1.87-.07v.65c-.67-.08-1.22-.08-1.87-.08h-6.32v4.92h5.45c.65,0,1.2,0,1.87-.07v.65c-.67-.07-1.22-.07-1.87-.07h-5.45v4.97h5.55c.65,0,1.2,0,1.87-.07v.65c-.67-.07-1.22-.07-1.87-.07h-5.55v4.97c0,.65,0,1.2.07,1.87h-.7Z"/>
      <path class="cls-1" d="M500.96,90.93c2.05-1.02,4.5-1.55,6.8-1.55,3.87,0,6.65,1.85,6.65,4.9,0,3.9-3.9,6.15-8.7,6.15-3.32,0-5.15-1.32-5.15-3.15,0-1.42,1.3-2.6,3.2-2.6,2.52,0,4.35,2.32,5,4.87,2.95-.7,5.1-2.5,5.1-5.27s-2.5-4.37-6.1-4.37c-2.65,0-5.05.62-6.82,1.57-.87.45-1.77.98-2.6,1.55-.5.35-1.1.77-1.55,1.12l-.4-.55c.52-.3,1.02-.65,1.57-1.05.8-.6,1.62-1.25,2.4-1.85,3.25-2.55,6.27-5.42,9.3-8.6-2.72.23-5.62.35-8.27.4-.62,0-1.27.02-1.9.08l-.02-.67c.65.05,1.27.07,1.92.07,2.65-.05,5.55-.17,8-.35.3-.02.68-.07.9-.17l.35.45c-.25.17-.55.52-.77.75-2.82,2.97-5.85,5.85-8.92,8.22l.02.05ZM503.78,95.21c-1.62,0-2.67.9-2.67,2.07,0,1.55,1.55,2.62,4.6,2.62.88,0,1.72-.08,2.52-.23-.6-2.45-2.32-4.47-4.45-4.47Z"/>
    </g>
  </g>
</svg>