<?xml version="1.0" encoding="UTF-8"?>
<svg id="_レイヤー_2" data-name="レイヤー 2" xmlns="http://www.w3.org/2000/svg" viewBox="0 0 529.2 243.82">
  <defs>
    <style>
      .cls-1 {
        fill: none;
        stroke: #000;
        stroke-miterlimit: 10;
      }
    </style>
  </defs>
  <g id="_レイヤー_1-2" data-name="レイヤー 1">
    <g>
      <path d="M11.17,29.77c-1.89,6.79-5.16,12.8-9.92,17.56-.26-.33-.78-.72-1.24-.91,4.77-4.57,8.03-10.45,9.79-17.11l1.37.46ZM22.72,24.16c-.2,10.9-1.96,18.15-5.88,23.83-2.87,4.18-7.77,8.23-12.73,10.77-.26-.46-.59-.85-1.11-1.18,5.22-2.55,9.79-6.33,12.6-10.38,3.79-5.48,5.55-12.34,5.68-23.05H5.35c-1.7,0-3.13,0-4.9.2v-1.7c1.76.2,3.2.2,4.9.2h21.74v-11.75H10.45c-1.7,0-3.13,0-4.9.2v-1.7c1.76.2,3.2.2,4.9.2h16.65v-4.57c0-1.63,0-2.94-.2-4.57h1.83c-.2,1.63-.2,2.94-.2,4.57v4.57h17.82c1.7,0,3.13,0,4.9-.2v1.7c-1.76-.2-3.2-.2-4.9-.2h-17.82v11.75h22.98c1.7,0,3.13,0,4.9-.2v1.7c-1.76-.2-3.2-.2-4.9-.2h-15.74v29.58c0,2.94-1.11,3.85-5.22,3.85-2.15,0-4.5-.13-7.05-.39,0-.46-.13-1.04-.39-1.5,2.81.39,5.03.59,7.31.59,3.26,0,3.92-.52,3.92-2.68v-29.45h-11.62ZM45.44,29.05c2.42,7.44,6.01,13.71,10.64,19-.46.2-.98.59-1.24.91-4.51-5.35-8.16-11.88-10.77-19.39l1.37-.52Z"/>
      <path d="M105.32,30.69c-4.37-4.7-7.9-10.45-10.45-17.37-2.61,19.72-13.32,35.26-27.42,44.92-.33-.39-.78-.85-1.18-1.04,8.55-5.81,15.6-13.25,20.5-22.53-3.07-3.26-7.18-6.86-10.38-9.01l.91-1.04c3.4,2.35,7.18,5.68,10.12,8.75,3.07-6.2,5.22-13.19,6.2-21.02h-14.63c-3.2,7.31-7.9,15.08-13.25,20.57-.33-.46-.78-.78-1.24-.91,7.25-6.99,12.8-17.69,15.67-26.64.52-1.63.98-3.46,1.24-5.09l1.76.39c-.65,1.7-1.11,3.46-1.63,5.09-.52,1.7-1.24,3.46-1.96,5.29h11.1c2.29,0,3.59-.07,4.77-.2.2.85.59,1.83.91,2.74,2.22,5.94,5.22,10.9,8.94,15.15V5.88c0-1.7,0-3.13-.2-4.9h1.83c-.2,1.76-.2,3.2-.2,4.9v24.35c4.7,4.96,10.51,8.81,17.11,12.14-.39.26-.85.78-1.04,1.18-6.01-3.07-11.49-6.79-16.19-11.49l.13,8.55v13.12c0,1.7,0,3.13.2,4.9h-1.83c.2-1.76.2-3.2.2-4.9v-23.05Z"/>
      <path d="M141.56,58.63c.2-1.63.2-3.26.2-4.9v-23.18c-3,.2-5.88.39-8.16.46-1.31.07-2.42.13-3.72.26l-.26-1.7c.78.07,1.44.07,2.09.07h1.89c.59,0,1.24,0,1.89-.07,1.7-2.22,3.46-4.57,5.16-7.05-2.94-3.79-6.53-7.51-10.06-10.77l.91-1.04c1.24,1.18,2.42,2.35,3.59,3.59,1.7-2.42,3.72-5.81,5.68-9.6.72-1.44,1.24-2.74,1.7-4.11l1.57.78c-.72,1.31-1.37,2.61-2.09,3.85-2.15,3.92-4.18,7.44-5.94,9.99,1.96,2.09,3.79,4.24,5.35,6.27,2.02-2.94,3.92-6.01,5.55-9.01.78-1.44,1.37-2.81,1.89-4.11l1.57.78c-.78,1.24-1.57,2.61-2.35,3.98-3.4,5.81-7.44,11.82-10.97,16.39,4.31-.13,9.47-.52,13.45-1.04-1.04-2.35-2.22-4.64-3.46-6.73l1.31-.46c1.96,3.53,3.92,7.64,5.35,11.49l-1.37.52c-.39-1.24-.85-2.48-1.37-3.72-2.35.33-5.03.59-7.77.85v23.31c0,1.63.06,3.26.2,4.9h-1.83ZM136.4,35.58c-.65,6.73-2.15,13.12-4.11,17.89l-1.44-.52c1.96-4.64,3.53-10.9,4.11-17.63l1.44.26ZM150.96,47.53c-.78-3.98-1.96-8.55-3.33-12.54l1.31-.33c1.44,3.92,2.61,8.36,3.46,12.47l-1.44.39ZM165.59,35.19c-.33.65-.72,1.5-1.04,2.22-3.53,7.9-8.1,13.45-13.71,17.69-.26-.39-.72-.78-1.18-1.04,6.14-4.31,11.43-11.23,14.04-18.15h-6.01c-1.5,0-2.81,0-4.24.2v-1.7c1.44.2,2.74.2,4.24.2h3.98c1.57,0,2.42-.07,3.26-.2l.65.78ZM170.35,54.45c0,2.42-1.04,3.26-3.92,3.26-2.02,0-4.18-.13-6.2-.39,0-.46-.13-1.04-.39-1.5,2.29.39,4.5.59,6.59.59,1.96,0,2.48-.46,2.48-2.22v-27.62h-7.25c-1.7,0-3.4,0-5.09.2.2-1.7.2-3.4.2-5.09v-10.25c0-1.7,0-3.4-.2-5.09,1.7.2,3.4.2,5.09.2h5.22c.91-2.22,1.76-4.5,2.29-6.53l1.57.39c-.78,1.96-1.63,4.11-2.48,6.14h10.32c1.7,0,3.4,0,5.09-.2-.2,1.7-.2,3.4-.2,5.09v10.25c0,1.7,0,3.4.2,5.09-1.7-.2-3.4-.2-5.09-.2h-8.16c1.18,4.64,3,9.14,5.42,13.25,3.26-2.68,6.66-6.4,9.01-9.66l1.18.98c-2.61,3.26-6.07,6.92-9.47,9.79,3.13,5.09,7.31,9.6,12.41,13.12-.46.33-.78.78-.98,1.24-8.88-6.4-14.82-15.21-17.83-25.73l.2,6.99v17.89ZM174.47,7.83h-16.26v7.83h23.83v-7.83h-7.57ZM158.21,16.98v8.29h23.83v-8.29h-23.83Z"/>
      <path d="M247.99,17.37c-.26.33-.59.85-.98,1.63-3.85,7.83-9.27,13.91-15.93,18.15-.26-.39-.72-.85-1.24-1.18,6.92-4.18,11.95-9.92,15.8-17.56l-31.08,4.24v19.46c0,7.38,2.02,9.01,12.99,9.01,4.57,0,9.79-.39,14.82-1.24,1.18-.2,2.42-.39,3.46-.72l.13,1.83c-.98.13-1.96.26-3.33.46-5.03.78-10.32,1.18-15.08,1.18-11.69,0-14.49-2.22-14.49-10.25v-19.52l-10.77,1.44c-1.7.26-3.13.46-4.83.85l-.26-1.83c1.76-.07,3.2-.26,4.9-.52l10.97-1.5v-11.88c0-1.7,0-3.13-.2-4.9h1.89c-.2,1.76-.2,3.2-.2,4.9v11.69l30.43-4.18c1.11-.13,1.63-.26,1.89-.46l1.11.91Z"/>
      <path d="M266.79,51.38c1.63-.2,3.4-.52,5.22-.91,8.68-1.83,17.69-5.75,24.09-10.64,7.44-5.68,13.52-13.65,17.43-23.77.33.59.72.98,1.18,1.31-4.05,9.79-10.12,17.82-17.69,23.64-6.66,5.09-15.74,8.88-24.68,10.9-1.76.39-3.53.85-5.09,1.31l-.46-1.83ZM283.9,23.5c-3.85-4.24-10.97-9.99-15.67-12.86l1.11-1.11c4.57,2.81,11.62,8.62,15.67,12.73l-1.11,1.24Z"/>
      <path d="M341.36,36.3c.2-1.76.2-3.2.2-4.9v-12.41h-9.01c-1.7,0-3.13,0-4.9.2v-1.89c1.76.2,3.2.2,4.9.2h9.01v-8.88c0-1.7,0-3.13-.2-4.9h1.89c-.2,1.76-.2,3.2-.2,4.9v8.88h23.18v-8.88c0-1.7,0-3.13-.2-4.9h1.89c-.2,1.76-.2,3.2-.2,4.9v8.88h9.14c1.7,0,3.13,0,4.9-.2v1.89c-1.76-.2-3.2-.2-4.9-.2h-9.14v3.59c0,12.34-1.76,18.48-5.62,23.31-3.4,4.31-9.47,7.97-15.34,9.92-.2-.52-.52-.98-.98-1.37,5.94-1.7,11.95-5.42,15.21-9.53,3.66-4.64,5.22-10.38,5.22-22.4v-3.53h-23.18v12.41c0,1.7,0,3.13.2,4.9h-1.89Z"/>
    </g>
    <g>
      <path d="M50.5,228.08c-5.62,1.7-12.54,3.4-18.8,4.7-1.63.33-2.81.52-4.18.91l-.46-1.63c1.44-.13,2.68-.33,4.37-.65.72-.13,1.5-.26,2.22-.46v-41.4h-1.37c-1.63,0-3.2,0-4.83.2v-1.7c1.76.2,3.13.2,4.83.2h20.24c1.7,0,3.07,0,4.83-.2v1.7c-1.44-.2-2.81-.2-4.24-.2h-1.17v49.36c0,1.63.06,3.26.2,4.9h-1.83c.2-1.63.2-3.26.2-4.9v-10.84ZM35.09,189.56v11.95h15.41v-11.95h-15.41ZM35.09,202.81v12.21h15.41v-12.21h-15.41ZM35.09,230.69c5.29-1.11,10.71-2.48,15.41-3.92v-10.45h-15.41v14.36ZM78.84,193.41c2.09,0,3.72-.07,4.64-.2-.26,1.11-.46,2.22-.65,3.33-2.22,11.43-6.07,20.96-10.97,28.73,3.98,6.14,9.01,11.3,14.82,15.54-.46.26-.78.72-1.04,1.17-5.68-4.31-10.64-9.34-14.63-15.41-4.57,6.79-9.99,12.21-16,16.19-.33-.46-.65-.78-1.18-1.11,6.2-3.92,11.82-9.47,16.39-16.32-5.03-8.16-8.42-18.15-9.47-30.62-1.7,0-3.07,0-4.77.2v-1.7c1.5.2,3.13.2,4.96.2h17.89ZM62.12,194.72c.98,11.69,4.11,21.29,8.94,29.25,5.16-8.23,8.88-18.15,10.58-29.25h-19.52Z"/>
      <path d="M109.4,185.51c-.13.78-.2,1.5-.2,2.22,0,1.57,0,3-.07,4.31h4.57c1.7,0,3.13,0,4.9-.2v1.7c-1.76-.2-3.2-.2-4.9-.2h-4.64c-.13,3.53-.46,6.01-.91,7.9h5.68c1.7,0,3.13,0,4.9-.2v1.7c-1.76-.2-3.2-.2-4.9-.2h-5.48c2.35,4.38,5.88,7.97,9.99,9.99-.39.33-.85.85-1.04,1.24-3.92-2.22-7.57-6.01-9.79-10.32-2.42,6.79-7.38,12.21-13.71,15.54-.2-.46-.59-.85-1.04-1.17,6.66-3.33,11.23-8.62,13.52-15.28h-7.9c-1.7,0-3.13,0-4.9.2v-1.7c1.76.2,3.2.2,4.9.2h8.29c.46-1.83.85-4.31.98-7.9h-7.51c-1.7,0-3.13,0-4.9.2v-1.7c1.76.2,3.2.2,4.9.2h7.57c.06-1.31.06-2.74.06-4.31,0-.65-.06-1.5-.2-2.22h1.83ZM138.13,239.77h-33.56v3.59h-1.63c.2-1.7.2-3.13.2-4.83v-16.32c0-1.7-.06-3.26-.2-4.83,1.63.2,3.33.2,4.96.2h26.9c1.7,0,3.33,0,4.96-.2-.13,1.57-.2,3.13-.2,4.83v16.32c0,1.7,0,3.13.2,4.83h-1.63v-3.59ZM138.13,227.62v-8.75h-33.56v8.75h33.56ZM104.57,238.46h33.56v-9.53h-33.56v9.53ZM134.54,185.51c-.13.78-.2,1.5-.2,2.22,0,1.57,0,3-.07,4.31h7.97c1.7,0,3.13,0,4.9-.2v1.7c-1.76-.2-3.2-.2-4.9-.2h-7.97c-.13,3.59-.46,6.01-.91,7.9h10.58c1.7,0,3.13,0,4.9-.2v1.7c-1.76-.2-3.2-.2-4.9-.2h-10.25c3.4,6.01,9.01,10.77,16.19,13.91-.33.33-.72.91-.91,1.31-7.25-3.13-12.86-8.23-16.26-14.36-1.89,5.16-5.94,9.79-10.45,12.47-.2-.33-.59-.78-1.11-1.11,4.77-2.55,8.62-7.18,10.32-12.21h-5.22c-1.7,0-3.13,0-4.9.2v-1.7c1.76.2,3.2.2,4.9.2h5.68c.46-1.83.78-4.18.91-7.9h-5.55c-1.7,0-3.13,0-4.9.2v-1.7c1.76.2,3.2.2,4.9.2h5.55c.07-1.31.07-2.74.07-4.31,0-.65-.07-1.5-.2-2.22h1.83Z"/>
      <path d="M205.97,238.53c0,3.46-1.18,4.38-5.03,4.38-3.13,0-6.99-.2-9.92-.52-.07-.52-.2-1.04-.33-1.5,3.4.46,7.05.72,10.12.72s3.72-.52,3.72-3.33v-47.99h-41.26c-1.7,0-3.13,0-4.9.2v-1.7c1.76.2,3.2.2,4.9.2h46.68c1.7,0,3.13,0,4.9-.2v1.7c-1.76-.2-3.2-.2-4.9-.2h-3.98v48.25ZM189.45,220.51c0,2.02,0,3.2.2,4.9-1.11-.13-3.2-.2-4.9-.2h-15.8v6.59h-1.63c.13-1.83.2-3.59.2-5.42v-19.78c0-1.7,0-3.4-.2-5.09,1.57.13,3.2.2,4.9.2h12.54c1.7,0,3.79-.07,4.9-.2-.13,1.57-.2,2.87-.2,5.09v13.91ZM188.01,223.9v-20.89h-19.07v20.89h19.07Z"/>
      <path d="M250.76,203.92c-.78-1.57-1.63-3.13-2.48-4.64-6.66,1.04-14.04,1.76-20.18,2.22-1.7.13-3.2.33-4.96.52l-.33-1.76h1.37c1.24,0,2.55-.07,3.79-.13h.13c2.55-3.79,5.48-9.53,7.64-14.95l1.57.65c-2.29,5.16-5.22,10.64-7.64,14.17,5.68-.33,12.14-.98,17.89-1.89-1.57-2.61-3.26-5.16-5.03-7.44l1.18-.59c3.07,3.85,5.88,8.36,8.36,12.99l-1.31.85ZM246.84,228.73h-17.43v9.66c0,1.7.07,3.4.2,5.09h-1.83c.2-1.7.2-3.4.2-5.09v-26.64c0-1.7,0-3.4-.2-5.09,1.5.2,3,.2,4.57.2h11.62c1.5,0,3,0,4.51-.2-.13,1.7-.2,3.4-.2,5.09v27.55c0,2.29-1.24,3.4-3.79,3.4-2.02,0-3.85-.06-5.81-.33,0-.46-.13-1.04-.33-1.5,2.15.39,4.05.52,6.07.52,1.7,0,2.42-.59,2.42-2.35v-10.32ZM246.84,216.92v-8.75h-17.43v8.75h17.43ZM229.41,227.43h17.43v-9.21h-17.43v9.21ZM257.81,206.53c0,2.42.46,3.07,8.94,3.07,9.27,0,10.19-.46,11.1-4.37.33-1.44.46-3.46.59-5.81.46.39.85.59,1.37.72-.2,2.15-.39,4.05-.65,5.42-.91,4.7-1.83,5.35-12.41,5.35-9.6,0-10.38-.72-10.38-4.18v-16c0-2.15,0-3.4-.2-4.5h1.83c-.2,1.24-.2,2.35-.2,4.64v6.86c4.83-1.37,10.77-3.85,15.21-6.27,1.5-.78,2.74-1.57,4.31-2.87l1.18,1.44c-1.89,1.04-3.26,1.83-4.83,2.68-4.57,2.48-10.71,4.9-15.87,6.4v7.44ZM257.81,237.61c0,2.42.46,3.07,8.94,3.07,9.27,0,10.19-.46,11.1-4.37.33-1.44.46-3.46.59-5.81.46.39.85.59,1.37.72-.2,2.15-.39,4.05-.65,5.42-.91,4.7-1.83,5.35-12.41,5.35-9.6,0-10.38-.72-10.38-4.18v-16.78c0-2.15,0-3.4-.2-4.51h1.83c-.2,1.24-.2,2.35-.2,4.64v6.01c4.83-1.37,10.97-3.72,15.47-6.27,1.5-.85,2.74-1.57,4.31-2.87l1.18,1.44c-1.89,1.04-3.26,1.83-4.83,2.68-4.64,2.55-10.97,4.9-16.13,6.33v9.14Z"/>
    </g>
    <polyline class="cls-1" points="389.53 36.03 474.9 36.03 528.86 71.43"/>
    <polyline class="cls-1" points="296.18 228.71 438.74 228.71 528.86 143.15"/>
  </g>
</svg>