<?xml version="1.0" encoding="UTF-8"?>
<svg id="_レイヤー_2" data-name="レイヤー 2" xmlns="http://www.w3.org/2000/svg" viewBox="0 0 466.61 99.41">
  <defs>
    <style>
      .cls-1 {
        fill: none;
        stroke: #000;
        stroke-miterlimit: 10;
        stroke-width: .5px;
      }
    </style>
  </defs>
  <g id="_レイヤー_1-2" data-name="レイヤー 1">
    <polyline class="cls-1" points="139.46 28.93 54.1 28.93 .14 64.33"/>
    <g>
      <path d="M182.85,30.79c-.56,16.02-7.73,25.5-22.71,31.14-.21-.49-.56-.91-1.11-1.39,14.98-5.09,21.95-14.49,22.29-29.75h-16.51c-1.81,0-3.34,0-5.23.21v-1.81c1.88.21,3.41.21,5.23.21h23.97v-14.98h-16.93c-2.16,3.83-4.88,7.45-7.87,10.38-.28-.35-.77-.7-1.32-.98,5.16-4.74,9.41-11.57,11.5-17.98.42-1.25.77-2.58.98-4.11l1.88.56c-.56,1.32-1.05,2.79-1.46,4.04-.77,2.23-1.74,4.46-2.93,6.69h16.16v-7.8c0-1.81,0-3.34-.21-5.23h1.95c-.21,1.88-.21,3.41-.21,5.23v7.8h19.09c1.81,0,3.34,0,5.23-.21v1.81c-1.88-.21-3.41-.21-5.23-.21h-19.09v14.98h24.45c1.81,0,3.34,0,5.23-.21v1.81c-1.88-.21-3.41-.21-5.23-.21h-17.91v25.43c0,2.09.77,2.86,9.48,2.86,11.36,0,12.05-1.11,12.68-11.43.49.35,1.04.56,1.53.63-1.04,10.8-1.81,12.19-14.21,12.19-9.82,0-11.01-.98-11.01-4.04v-25.64h-12.47Z"/>
      <path d="M255.45,51.07c-6.34,2.23-14.84,4.74-20.9,6.41-1.81.49-3.55.98-5.36,1.53l-.49-1.81c1.74-.28,3.62-.7,5.64-1.18,2.93-.77,6.34-1.67,9.82-2.72,2.16-4.53,4.32-11.22,5.64-16.58l1.6.42c-1.46,5.02-3.69,11.36-5.57,15.68,3.41-.98,6.76-2.02,9.61-3.07v1.32ZM254.19,5.57c-1.88-.21-3.34-.21-5.5-.21h-14.28c-1.95,0-3.27,0-5.02.21v-1.81c1.74.21,3.07.21,5.02.21h14.28c2.16,0,3.62,0,5.5-.21v1.81ZM252.38,27.59c0,1.81,0,3.62.21,5.43-1.81-.21-3.62-.21-5.43-.21h-9.34c-1.81,0-3.62,0-5.43.21.21-1.81.21-3.62.21-5.43v-7.87c0-1.81,0-3.62-.21-5.43,1.81.21,3.62.21,5.43.21h9.34c1.81,0,3.62,0,5.43-.21-.21,1.81-.21,3.62-.21,5.43v7.87ZM238.1,50.93c-.98-4.32-2.79-9.41-4.67-13.31l1.46-.49c1.81,3.83,3.55,8.92,4.67,13.1l-1.46.7ZM250.85,31.42v-15.54h-16.72v15.54h16.72ZM267.64,51.63c-3.76,4.11-8.99,7.73-14.42,10.1-.28-.49-.7-.91-1.18-1.25,5.5-2.09,10.87-5.64,14.28-9.61l1.32.77ZM273.28,47.79h-8.08c-1.81,0-3.62.07-5.43.21.21-1.53.21-3,.21-4.88v-24.73c0-1.88,0-3.34-.21-4.88,1.81.14,3.62.21,5.43.21h3.83c1.32-2.86,2.58-6.13,3.41-9.13h-10.24c-1.81,0-3.34,0-5.23.21v-1.81c1.88.21,3.41.21,5.23.21h22.23c1.81,0,3.34,0,5.23-.21v1.81c-1.88-.21-3.62-.21-5.23-.21h-10.38c-.91,3-2.23,6.55-3.41,9.13h9.89c1.81,0,3.62-.07,5.43-.21-.21,1.53-.21,3-.21,4.88v24.73c0,1.88,0,3.34.21,4.88-1.81-.14-3.62-.21-5.43-.21h-7.25ZM275.86,15.12h-14.35v8.99h22.71v-8.99h-8.36ZM261.51,25.5v9.34h22.71v-9.34h-22.71ZM261.51,36.23v10.17h22.71v-10.17h-22.71ZM278.02,50.79c3.34,3.69,8.36,7.32,13.38,9.48-.42.35-.84.84-1.11,1.25-4.88-2.37-9.89-6.06-13.66-9.96l1.39-.77Z"/>
    </g>
    <g>
      <path d="M188.81,88.19c-.2,5.75-2.77,9.15-8.15,11.17-.07-.17-.2-.32-.4-.5,5.37-1.82,7.87-5.2,8-10.67h-5.92c-.65,0-1.2,0-1.87.08v-.65c.67.08,1.22.08,1.87.08h8.6v-5.37h-6.07c-.77,1.38-1.75,2.67-2.82,3.72-.1-.12-.27-.25-.48-.35,1.85-1.7,3.37-4.15,4.12-6.45.15-.45.27-.92.35-1.47l.67.2c-.2.47-.38,1-.52,1.45-.27.8-.62,1.6-1.05,2.4h5.8v-2.8c0-.65,0-1.2-.07-1.87h.7c-.08.67-.08,1.22-.08,1.87v2.8h6.85c.65,0,1.2,0,1.87-.08v.65c-.67-.08-1.22-.08-1.87-.08h-6.85v5.37h8.77c.65,0,1.2,0,1.87-.08v.65c-.67-.08-1.22-.08-1.87-.08h-6.42v9.12c0,.75.27,1.02,3.4,1.02,4.07,0,4.32-.4,4.55-4.1.17.12.37.2.55.22-.38,3.87-.65,4.37-5.1,4.37-3.52,0-3.95-.35-3.95-1.45v-9.2h-4.47Z"/>
      <path d="M212.36,78.34c-.2.5-.43,1.15-.73,1.9-.57,1.42-1.4,3.1-2.2,4.52,1.85,2,2.42,4.05,2.42,5.77,0,2.12-.7,2.8-2.1,2.8-.52,0-.92-.02-1.37-.08,0-.2-.02-.35-.12-.57.5.1,1,.15,1.45.15,1.07,0,1.6-.42,1.6-2.3,0-1.55-.55-3.6-2.47-5.7,1.1-2,2.15-4.25,2.8-6.3h-4.55v18.85c0,.65.02,1.3.07,1.95h-.7c.05-.65.08-1.3.08-1.95v-17.47c0-.65-.02-1.3-.08-1.95.45.05.9.07,1.4.07h2.75c.48,0,.98-.02,1.4-.07l.35.37ZM227.68,95.26c-.67-.07-1.3-.07-1.87-.07h-6.07v2.1c0,.62,0,1.32.07,2.12h-.7c.08-.8.08-1.5.08-2.12v-2.1h-5.57c-.65,0-1.2,0-1.87.07v-.65c.67.07,1.22.07,1.87.07h5.57v-3.05h-3.7c-.65,0-1.3.02-1.95.08.08-.5.08-1.02.08-1.57v-5.32c0-.55,0-1.07-.08-1.57.65.05,1.3.08,1.95.08h3.7v-2.7h-4.62c-.65,0-1.2,0-1.87.07v-.65c.67.08,1.22.08,1.87.08h4.62v-1.17c0-.62,0-1.25-.08-1.87h.7c-.05.62-.07,1.25-.07,1.87v1.17h5.75c.65,0,1.2,0,1.87-.08v.65c-.67-.07-1.3-.07-1.87-.07h-5.75v2.7h4.32c.65,0,1.3-.02,1.95-.08-.08.5-.08,1.02-.08,1.57v5.32c0,.55,0,1.07.08,1.57-.65-.05-1.3-.08-1.95-.08h-4.32v3.05h6.07c.65,0,1.2,0,1.87-.07v.65ZM214.16,87.14h5.02v-3.32h-5.02v3.32ZM219.18,87.64h-5.02v3.5h5.02v-3.5ZM219.73,87.14h5.65v-3.32h-5.65v3.32ZM225.38,87.64h-5.65v3.5h5.65v-3.5Z"/>
      <path d="M247.38,92.21c-.18-.12-.48-.28-.75-.4-1.6-.65-3.8-.95-5.75-.95-4.42,0-6.9,1.62-6.9,3.5,0,2.2,2.75,3.25,5.97,3.25,1.82,0,3.95-.25,5.97-.9.55-.17,1.07-.37,1.57-.62l.1.62c-2.55,1-5.25,1.42-7.65,1.42-3.77,0-6.52-1.4-6.52-3.77,0-2.22,2.67-4,7.47-4,1.87,0,4,.27,5.72.95l.02-.05c-1.17-1.37-2.3-3.05-3.3-4.82-2.7.5-5.85.77-8.9.77-.73,0-1.17.02-1.67.08l-.02-.67c.5.05.97.07,1.7.07,2.95,0,6.02-.27,8.62-.72-.62-1.15-1.25-2.37-1.82-3.67-2.37.35-4.77.5-6.97.5-.52,0-1,.02-1.5.07l-.02-.67c.5.05.97.08,1.52.08,2.15,0,4.5-.15,6.75-.45-.27-.65-.55-1.32-.82-1.97-.23-.58-.52-1.25-.82-1.85l.65-.15c.2.6.45,1.27.7,1.87.27.67.57,1.35.85,2,1.62-.25,3.2-.57,4.7-.95.73-.18,1.4-.38,2.15-.67l.05.62c-2.3.65-4.52,1.15-6.67,1.5.57,1.27,1.17,2.52,1.82,3.65,1.3-.23,2.6-.52,3.7-.82.75-.2,1.4-.42,2.12-.73l.08.62c-2,.6-3.97,1.1-5.62,1.4.92,1.6,1.97,3.15,3.35,4.85.2.25.32.38.52.57l-.4.45Z"/>
      <path d="M258.06,88.39c.45-.08.98-.17,1.57-.35,2.82-.77,6.32-1.32,8.25-1.32,3.85,0,5.67,2.12,5.67,4.52,0,2.75-2.15,4.95-4.92,6.02-1.65.62-3.77,1-5.52,1.07-.02-.17-.1-.37-.23-.55,1.88,0,4-.42,5.57-1.02,2.6-1,4.57-2.87,4.57-5.52,0-2.07-1.52-4.02-5.12-4.02-1.82,0-5.22.52-8.15,1.32-.57.15-1,.3-1.47.48l-.23-.62Z"/>
      <path d="M300.5,81.21c-1.12.05-2.47.27-3.17.5-4.85,1.6-7.85,5.27-7.85,8.87,0,2.77,1.85,4.92,5.45,5.9.82.22,1.62.4,2.32.47l-.15.67c-.75-.2-1.52-.4-2.32-.62-3.87-1.1-5.85-3.45-5.85-6.37,0-3.87,2.9-7.47,8.12-9.27v-.05c-.55.05-1.4.12-3.17.22-4.1.25-8.32.58-10.2.73-.75.05-1.52.12-2.15.2l-.05-.65c.77,0,1.38-.03,2.15-.08,3.82-.3,9.72-.7,14.65-.95,1.35-.08,1.85-.12,2.17-.17l.05.6Z"/>
      <path d="M310.78,88.69c-.12.45-.25,1.05-.38,1.7-.12.57-.25,1.12-.42,1.67.8,1.95,2.05,3.5,3.57,4.42.62.37,1.38.67,2.27.92v-11h-8.35c-.65,0-1.2,0-1.87.08v-.65c.67.07,1.22.07,1.87.07h8.35v-4.32h-6.37c-.65,0-1.2,0-1.87.07v-.65c.67.07,1.22.07,1.87.07h6.37v-1.87c0-.65,0-1.2-.08-1.87h.7c-.07.67-.07,1.22-.07,1.87v1.87h6.52c.65,0,1.2,0,1.87-.07v.65c-.67-.07-1.22-.07-1.87-.07h-6.52v4.32h8.65c.65,0,1.2,0,1.87-.07v.65c-.67-.08-1.23-.08-1.87-.08h-8.65v4.57h6.32c.57,0,1.05,0,1.62-.07v.65c-.57-.08-1.05-.08-1.62-.08h-6.32v6.05c1.6.35,3.67.5,6.37.5,1.47,0,3.32-.07,4.67-.22-.1.17-.15.4-.2.57-1.17.1-2.95.15-4.45.15-4.95,0-7.72-.52-9.47-1.62-1.57-.98-2.8-2.45-3.52-4.2-.87,2.6-2.27,4.9-4.02,6.55-.1-.12-.27-.25-.5-.35,2.3-2.07,3.87-5.12,4.62-8.65.12-.62.23-1.22.25-1.7l.65.12Z"/>
      <path d="M335.58,88.24c.77-4.55,3.72-8.77,7.07-8.77s5.12,3.35,5.12,7.6c0,3.82-1.55,6.72-3.87,8.55-1.5,1.17-3.67,2.15-5.95,2.72-.05-.17-.17-.37-.32-.52,2.32-.5,4.45-1.47,5.92-2.62,2.25-1.75,3.67-4.62,3.67-8.12,0-3.97-1.55-7.07-4.6-7.07-3.2,0-5.8,4.35-6.62,8.4-.2.95-.27,1.92-.27,2.77l-.6.02c-.05-.9-.1-2.1-.1-3.15,0-2.45.27-5.92.73-8.35.12-.67.25-1.38.3-2.05l.7.1c-.2.67-.32,1.35-.45,2.02-.48,2.42-.77,6-.77,8.47h.05Z"/>
      <path d="M374.95,97.06c-.3-.3-.65-.6-1.05-.92-1.87-1.47-4.55-3-6.52-3.7.02.52.05,1.12.05,1.52,0,2.72-1.6,3.95-4.4,3.95-3,0-4.77-1.37-4.77-3.15s1.9-3.4,5.6-3.4c1.05,0,2.07.12,2.97.38-.05-1.3-.1-2.87-.15-4.52-.92.05-1.85.08-2.75.08-1.25,0-2.52-.03-3.75-.08-.62-.02-1.3-.1-1.87-.1l.02-.65c.6.1,1.27.18,1.87.2,1.23.08,2.45.1,3.72.1.88,0,1.8-.02,2.72-.08-.02-1.45-.05-2.92-.08-4.25-.97.02-2,.05-3.07.05-1.22,0-2.7-.03-3.92-.12-.62-.05-1.4-.1-1.87-.12l.02-.65c.55.1,1.27.17,1.87.23,1.22.1,2.7.15,3.9.15,1.07,0,2.1-.02,3.07-.05v-1.92c0-1,0-1.42-.07-2h.7c-.08.6-.08.97-.08,2v1.9c2.22-.1,4.15-.27,5.75-.52.77-.12,1.45-.27,1.9-.4l.05.65c-.47.05-1.12.15-1.92.27-1.6.25-3.52.42-5.77.52,0,1.32.03,2.8.05,4.25,1.9-.1,3.82-.3,5.47-.55.77-.12,1.35-.25,1.8-.38l.08.65c-.48.05-1.02.12-1.82.25-1.67.25-3.57.45-5.5.55.05,1.72.1,3.37.17,4.7,2.07.7,4.95,2.35,6.85,3.8.47.37.82.62,1.07.8l-.35.57ZM366.88,93.91c0-.52-.02-1.1-.05-1.65-.88-.23-1.9-.38-2.92-.38-3.42,0-5.1,1.4-5.1,2.87s1.5,2.62,4.22,2.62c2.52,0,3.85-.95,3.85-3.47Z"/>
      <path d="M393.61,87.69c.27.72.43,1.62.43,2.65,0,2.62-1.07,4.72-3.2,6.4-.98.77-2.27,1.45-3.72,1.97-.1-.17-.23-.32-.4-.47,1.47-.48,2.82-1.15,3.82-1.95,2-1.6,2.95-3.52,2.95-5.95,0-.57-.02-.97-.07-1.3h-.05c-.25,2.05-1.8,3.25-3.72,3.25-2.07,0-3.55-1.47-3.55-3.5,0-1.77,1.5-3.45,3.87-3.45,1.37,0,2.52.75,3.12,1.67l-.05-2.67v-2.2c-3.25.08-6.97.23-9.75.35-1.07.05-1.82.1-2.27.15l-.02-.7c.27.02.57.02.85.02.25,0,.62,0,1.42-.02,2.6-.1,6.45-.25,9.77-.33v-1.87c0-.65,0-1.35-.07-1.9h.7c-.05.55-.08,1.25-.08,1.9v1.87c.38,0,1.17-.02,1.85-.02h4.22c.62,0,1.3,0,1.72-.05v.68c-.45-.05-1.2-.08-1.7-.08-1.4-.02-3-.02-4.17-.02-.65,0-1.5.02-1.92.02l.02,5.55ZM389.88,85.86c-1.92,0-3.25,1.37-3.25,2.92,0,1.75,1.27,2.97,3.02,2.97,1.85,0,3.3-1.4,3.3-3.3,0-1.4-1.4-2.6-3.07-2.6Z"/>
      <path d="M416.61,79.11c-.07.62-.07,1.27-.07,1.9v7.25c0,1.9-.02,3.77-.05,4.42h-.45c-.05-.65-.08-2.52-.08-4.42v-7.25c0-.62,0-1.27-.07-1.9h.72ZM416.56,97.73h-.57v-2.25h.57v2.25Z"/>
      <path d="M441.61,79.11c-.07.62-.07,1.27-.07,1.9v7.25c0,1.9-.02,3.77-.05,4.42h-.45c-.05-.65-.08-2.52-.08-4.42v-7.25c0-.62,0-1.27-.07-1.9h.72ZM441.56,97.73h-.57v-2.25h.57v2.25Z"/>
      <path d="M466.61,79.11c-.07.62-.07,1.27-.07,1.9v7.25c0,1.9-.02,3.77-.05,4.42h-.45c-.05-.65-.08-2.52-.08-4.42v-7.25c0-.62,0-1.27-.07-1.9h.72ZM466.56,97.73h-.57v-2.25h.57v2.25Z"/>
    </g>
  </g>
</svg>