<?xml version="1.0" encoding="UTF-8"?>
<svg id="_レイヤー_2" data-name="レイヤー 2" xmlns="http://www.w3.org/2000/svg" viewBox="0 0 560.65 150.34">
  <defs>
    <style>
      .cls-1 {
        fill: none;
        stroke: #000;
        stroke-miterlimit: 10;
        stroke-width: .5px;
      }
    </style>
  </defs>
  <g id="_レイヤー_1-2" data-name="レイヤー 1">
    <polyline class="cls-1" points="232.85 85.74 90.29 85.74 .17 .18"/>
    <g>
      <path d="M263.31,65.52c2.51,0,3.21,0,4.53-.21-.21,1.32-.35,2.44-.49,4.04-.77,9.48-3.21,18.18-7.25,25.64,3.48,3,6.97,6.27,10.24,9.61l-1.11,1.32c-3.14-3.34-6.48-6.62-9.89-9.54-3.55,6.13-8.29,11.36-14.14,15.47-.35-.49-.77-.84-1.25-1.11,6.06-4.11,10.8-9.2,14.28-15.33-3.69-3.2-7.46-6.06-10.94-8.29,2.44-5.92,4.74-12.89,6.41-20.2h-4.11c-1.81,0-3.34,0-5.23.21v-1.81c1.6.21,3,.21,5.23.21h4.46c.63-2.93,1.25-5.99,1.67-8.99.35-2.23.63-4.32.7-5.99l1.88.21c-.35,1.81-.7,3.97-1.04,6.06-.49,2.93-1.04,5.85-1.67,8.71h7.73ZM255.23,66.92c-1.74,7.39-3.9,14.28-6.2,19.72,3,1.88,6.41,4.46,9.96,7.45,3.97-7.45,6.27-16.44,7.11-27.17h-10.87ZM303.65,56.33c-.84.98-1.39,1.74-2.16,2.79-3,3.83-8.22,9.2-12.89,12.82v9.06h13.45c1.81,0,3.34,0,5.23-.21v1.81c-1.88-.21-3.62-.21-5.23-.21h-13.45v24.8c0,2.65-1.32,3.97-4.53,3.97-2.86,0-5.71-.21-8.43-.56,0-.49-.14-1.11-.42-1.6,3.07.56,5.92.77,8.71.77,2.37,0,3.14-.7,3.14-2.86v-24.52h-12.4c-1.81,0-3.34,0-5.23.21v-1.81c1.88.21,3.41.21,5.23.21h12.4v-5.64c0-1.74-.07-3.48-.21-5.23h1.67c4.04-3.07,8.99-8.08,12.68-13.17h-23.55c-2.09,0-3.55,0-5.23.21v-1.81c1.67.21,3.14.21,5.23.21h20.69c2.3,0,3.34,0,4.6-.14l.7.91Z"/>
      <path d="M363.5,108.23c0,3.07-1.18,3.97-5.64,3.97-2.79,0-6.62-.28-9.75-.63,0-.49-.14-1.11-.42-1.6,3.41.49,7.11.84,10.1.84,3.48,0,4.18-.49,4.18-2.79v-27.94h-42.5c-1.81,0-3.34,0-5.23.21v-1.81c1.88.21,3.41.21,5.23.21h50.23c1.81,0,3.34,0,5.23-.21v1.81c-1.88-.21-3.41-.21-5.23-.21h-6.2v28.15ZM345.45,59.6c4.18,7.11,14,12.54,25.36,13.86-.49.49-.7.84-.91,1.39-11.63-1.6-21.67-7.25-26.06-15.26-3.55,8.78-13.38,13.73-24.32,15.47-.14-.49-.35-.98-.84-1.46,10.45-1.25,20-5.85,23.62-14h-17.7c-1.81,0-3.34,0-5.23.21v-1.81c1.88.21,3.41.21,5.23.21h18.18c.42-1.11.63-2.16.84-3.34.14-.84.28-2.09.28-3.14,0-.42,0-.84-.07-1.11l1.88.14c-.28,1.39-.49,3.34-.56,4.04-.07.7-.42,2.3-.77,3.41h20c1.81,0,3.34,0,5.23-.21v1.81c-1.88-.21-3.41-.21-5.23-.21h-18.95ZM324.13,106.98c.14-1.95.21-3.55.21-5.5v-9.54c0-1.74,0-3.21-.21-4.53,1.81.14,3.62.21,5.43.21h14c1.81,0,3.62-.07,5.43-.21-.21,1.32-.21,2.79-.21,4.53v5.85c0,1.74,0,3.13.21,4.46-1.81-.14-3.62-.21-5.43-.21h-17.7v4.95h-1.74ZM347.26,89h-21.39v11.64h21.39v-11.64Z"/>
      <path d="M394.02,73.05c-1.67,10.45-5.23,20.9-9.82,28.29l-1.32-.98c4.6-7.04,8.15-17.42,9.68-27.8l1.46.49ZM404.68,105.03c0,2.93.91,3.62,10.8,3.62,10.87,0,12.89-1.25,13.8-4.6.91-3.41,1.46-8.01,1.67-12.82.49.35,1.04.56,1.53.63-.28,4.67-.77,8.99-1.81,12.82-1.18,4.32-3.83,5.36-15.19,5.36-10.59,0-12.33-.84-12.33-4.74v-34.77c0-1.81,0-3.41-.21-5.23h1.95c-.21,1.81-.21,3.41-.21,5.23v34.49ZM426.48,63.57c-7.18-4.88-15.26-8.85-22.78-11.64l.84-1.18c7.52,2.72,15.33,6.55,22.78,11.5l-.84,1.32ZM444.95,99.11c-2.79-8.92-7.11-18.32-12.12-26.2l1.39-.77c5.16,8.08,9.48,17.49,12.12,26.27l-1.39.7Z"/>
    </g>
    <g>
      <path d="M269.18,150.19c.07-.62.07-1.25.07-1.87v-7.6l.08-1.85c-1.25,1.42-2.67,2.72-4.2,3.82-.1-.17-.22-.32-.4-.45,3.27-2.2,6.12-5.5,7.82-9.45h-5.57c-.5,0-1,0-1.5.08v-.65c.5.07,1,.07,1.5.07h2.3v-2.65c0-.62,0-1.25-.07-1.87h.7c-.05.62-.08,1.25-.08,1.87v2.65h1.6c.83,0,1.2-.02,1.65-.07l.25.3c-.2.38-.45.92-.73,1.5-.7,1.42-1.6,2.82-2.7,4.17,1.02,1.32,2.6,2.65,4.15,3.6-.17.12-.3.27-.4.45-1.42-.95-2.87-2.22-3.9-3.47l.05,1.95v7.6c0,.62.02,1.25.08,1.87h-.7ZM278.9,142.09c-.35,4.25-2.6,6.62-6.05,8-.07-.15-.25-.35-.42-.45,3.4-1.25,5.57-3.5,5.92-7.55h-1.52c-.55,0-1.05,0-1.57.08.08-.65.08-1.3.08-1.95v-9.42c0-.65,0-1.3-.08-1.95.65.07,1.3.07,1.95.07h7c.65,0,1.3,0,1.95-.07-.08.65-.08,1.3-.08,1.95v9.42c0,.65,0,1.3.08,1.95-.35-.05-.97-.08-1.57-.08h-2.07v6.3c0,.75.17.88,2.1.88s2.27-.2,2.47-.9c.17-.57.25-1.47.25-2.7.17.12.35.2.52.25-.02,1.15-.12,2-.3,2.62-.25.98-.75,1.23-2.95,1.23s-2.65-.23-2.65-1.27v-6.4h-3.05ZM280.65,129.42h-4.77v3.65h9.65v-3.65h-4.87ZM275.88,133.57v3.62h9.65v-3.62h-9.65ZM275.88,137.69v3.9h9.65v-3.9h-9.65Z"/>
      <path d="M299.2,138.17c-1.77,2.9-4.95,4.9-8.52,6.12-.05-.15-.17-.32-.37-.5,3.57-1.1,6.62-3.05,8.3-5.62h-3.57c-.65,0-1.3.02-1.95.07.08-.62.08-1.25.08-1.87v-5.57c0-.62,0-1.22-.08-1.87.65.08,1.3.08,1.95.08h12.97c.65,0,1.3,0,1.95-.08-.08.65-.08,1.25-.08,1.87v5.57c0,.62,0,1.25.08,1.87-.65-.05-1.3-.07-1.95-.07h-3.75c1.9,2.75,5.12,4.52,8.65,5.5-.15.12-.27.32-.35.5-3.62-1.07-6.9-2.97-8.9-6h-4.45ZM298.18,141.54c-.05.35-.08.65-.08,1.1,0,3.65-1.75,6.15-5.95,7.7-.07-.2-.17-.35-.37-.52,4.02-1.37,5.77-3.72,5.77-7.17,0-.38-.02-.72-.08-1.1h.7ZM301.1,133.29v-3.8h-7.4v3.8h7.4ZM301.1,137.67v-3.87h-7.4v3.87h7.4ZM301.65,129.49v3.8h7.67v-3.8h-7.67ZM301.65,133.79v3.87h7.67v-3.87h-7.67ZM304.82,150.24c.07-.8.07-1.5.07-2.12v-5c0-.55-.02-1.07-.07-1.62h.7c-.05.55-.08,1.07-.08,1.62v5c0,.62,0,1.32.08,2.12h-.7Z"/>
      <path d="M326.7,128.29c2.6,3.8,6.8,7.25,11.37,9.2-.15.15-.3.32-.37.5-4.55-2.05-8.77-5.55-11.3-9.2-2.52,3.67-6.37,7.15-10.87,9.22-.1-.17-.22-.32-.42-.45,4.5-1.97,8.4-5.42,11-9.27h.6ZM337.25,149.01c-.67-.08-1.22-.08-1.87-.08h-17.8c-.65,0-1.2,0-1.87.08v-.65c.67.08,1.22.08,1.87.08h8.52v-5.5h-5.17c-.65,0-1.2,0-1.87.08v-.65c.67.08,1.22.08,1.87.08h5.17v-4.67h-4.65c-.65,0-1.2,0-1.87.07v-.65c.67.08,1.22.08,1.87.08h9.85c.65,0,1.2,0,1.87-.08v.65c-.67-.07-1.23-.07-1.87-.07h-4.65v4.67h5.2c.65,0,1.2,0,1.87-.08v.65c-.67-.08-1.22-.08-1.87-.08h-5.2v5.5h8.72c.65,0,1.2,0,1.87-.08v.65Z"/>
      <path d="M360.77,131.97c-1.12.05-2.47.27-3.17.5-4.85,1.6-7.85,5.27-7.85,8.87,0,2.77,1.85,4.92,5.45,5.9.82.22,1.62.4,2.32.47l-.15.67c-.75-.2-1.52-.4-2.32-.62-3.87-1.1-5.85-3.45-5.85-6.37,0-3.87,2.9-7.47,8.12-9.27v-.05c-.55.05-1.4.12-3.17.22-4.1.25-8.32.58-10.2.73-.75.05-1.52.12-2.15.2l-.05-.65c.77,0,1.38-.03,2.15-.08,3.82-.3,9.72-.7,14.65-.95,1.35-.08,1.85-.12,2.17-.17l.05.6Z"/>
      <path d="M369.03,146.86c.28-1.45.95-3.45,2.1-5.7.1.17.23.35.38.45-1.1,2-1.8,4.12-2.07,5.57-.05.3-.1.67-.1.85,0,.15,0,.27.02.45l-.6.1c-.02-.2-.07-.52-.12-.77-.43-2.17-.75-5.05-.75-7.35,0-2.6.27-5.77,1.2-9.57.17-.72.32-1.37.38-1.8l.67.15c-.18.42-.35,1.1-.52,1.77-.95,3.72-1.17,6.92-1.17,9.45,0,2.2.27,4.85.55,6.4h.05ZM385.92,146.09c-.38.08-.7.17-1.4.32-1.22.27-2.72.43-4.2.43-4.3,0-6.27-1.62-6.27-4,0-1.05.38-2.55,2.12-4.2l.45.3c-1.8,1.6-2.05,2.92-2.05,3.9,0,2,1.65,3.47,5.75,3.47,1.42,0,2.92-.15,4.1-.43.65-.15,1.12-.3,1.4-.45l.1.65ZM384.85,132.59c-1.9.38-4.05.57-6.57.57-1.37,0-2.77-.08-4.1-.3l.02-.58c1.35.25,2.77.35,4.07.35,2.47,0,4.67-.2,6.52-.65l.05.6Z"/>
      <path d="M410.2,131.17c-.08.15-.15.3-.18.5-.52,5.72-2.42,10.05-5.17,12.75-1.85,1.8-4.35,3.25-6.6,4.05-.07-.23-.17-.38-.35-.55,2.3-.75,4.8-2.17,6.55-3.92,2.7-2.67,4.5-6.77,5.02-12.52h-15.32v5.37c0,.55,0,1.05.08,1.62h-.72c.07-.58.07-1.07.07-1.62v-4.4c0-.58,0-1.05-.07-1.62.62.08,1.25.08,1.87.08h13.7c.4,0,.62-.02.75-.08l.38.35Z"/>
      <path d="M434.2,132.37c-.1.12-.15.27-.22.5-.98,3.45-2.47,6.47-4.35,8.97-2.45,3.25-5.9,5.8-9.52,7.37-.08-.2-.23-.4-.4-.52,3.72-1.55,7.07-4.05,9.45-7.17,1.9-2.47,3.3-5.45,4.25-8.85l-9.5.18c-1.65,2.6-3.85,5-6.15,6.7-.17-.2-.3-.3-.52-.4,3.1-2.17,5.87-5.55,7.5-8.97.38-.8.55-1.3.65-1.72l.7.22c-.22.4-.45.92-.82,1.72-.3.65-.65,1.27-1.02,1.9l2.57-.07,6.3-.12c.42,0,.62-.02.75-.08l.35.35Z"/>
      <path d="M460.2,131.17c-.08.15-.15.3-.18.5-.52,5.72-2.42,10.05-5.17,12.75-1.85,1.8-4.35,3.25-6.6,4.05-.07-.23-.17-.38-.35-.55,2.3-.75,4.8-2.17,6.55-3.92,2.7-2.67,4.5-6.77,5.02-12.52h-15.32v5.37c0,.55,0,1.05.08,1.62h-.72c.07-.58.07-1.07.07-1.62v-4.4c0-.58,0-1.05-.07-1.62.62.08,1.25.08,1.87.08h13.7c.4,0,.62-.02.75-.08l.38.35Z"/>
      <path d="M484.2,132.37c-.1.12-.15.27-.22.5-.98,3.45-2.47,6.47-4.35,8.97-2.45,3.25-5.9,5.8-9.52,7.37-.08-.2-.23-.4-.4-.52,3.72-1.55,7.07-4.05,9.45-7.17,1.9-2.47,3.3-5.45,4.25-8.85l-9.5.18c-1.65,2.6-3.85,5-6.15,6.7-.17-.2-.3-.3-.52-.4,3.1-2.17,5.87-5.55,7.5-8.97.38-.8.55-1.3.65-1.72l.7.22c-.22.4-.45.92-.82,1.72-.3.65-.65,1.27-1.02,1.9l2.57-.07,6.3-.12c.42,0,.62-.02.75-.08l.35.35Z"/>
      <path d="M510.25,137.24c-.57.17-1.07.35-1.65.55-1.55.52-3.02,1.1-5.1,1.95.05.45.07.95.07,1.5v2.2c0,.8,0,1.25.02,1.62h-.67c.08-.42.1-1,.1-2.62v-1.2c0-.48-.02-.9-.05-1.27-1.47.62-2.65,1.25-3.52,1.85-1.77,1.2-2.2,2.27-2.2,3.25,0,1.82,1.42,3,5.52,3,1.52,0,3.42-.12,5.05-.4.57-.1,1.17-.23,1.62-.38l.1.62c-.38.05-.97.17-1.6.27-1.7.27-3.6.4-5.15.4-4.4,0-6.1-1.35-6.1-3.52,0-1.12.5-2.37,2.42-3.65.95-.62,2.15-1.3,3.8-2-.25-1.9-.97-2.62-2.47-2.62-2.02,0-4,.98-5.42,2.22-.5.42-1.1.97-1.65,1.55-.3.3-.6.62-.83.9l-.47-.47c.27-.23.57-.5.87-.8.55-.58,1.1-1.2,1.55-1.75,1.17-1.42,2.52-3.37,3.72-5.77h-.55c-1.42,0-2.7-.05-3.45-.07-.6-.02-1.02-.05-1.62-.05l.02-.67c.6.1,1,.12,1.6.18.8.07,2.05.1,3.52.1h.75c.3-.62.6-1.27.88-1.95.25-.6.45-1.22.57-1.77l.7.18c-.2.42-.5,1.17-.75,1.77-.25.6-.52,1.2-.8,1.75,2.4-.05,5.02-.22,7.17-.57.58-.1,1.02-.17,1.7-.38l.1.65c-.62.08-1.17.17-1.7.25-2.3.35-5.05.55-7.52.6-1.15,2.3-2.4,4.15-3.57,5.55l.05.02c1.42-1.17,3.3-1.95,5.25-1.95,1.65,0,2.55.9,2.87,2.92,1.9-.8,3.42-1.4,4.97-1.95.55-.2,1.08-.4,1.55-.65l.27.62Z"/>
      <path d="M523.28,138.84c-1.07.57-2.12,1.1-3.2,1.62v8.22c0,.92-.4,1.25-1.62,1.25-.6,0-1.32-.05-2.05-.12,0-.17-.05-.4-.15-.57.8.15,1.52.2,2.15.2.95,0,1.12-.17,1.12-.85v-7.87c-.65.3-1.32.6-2.02.87-.52.23-1.05.42-1.55.65l-.27-.6c.52-.15,1.1-.33,1.7-.55.73-.27,1.45-.57,2.15-.9v-6.5h-1.9c-.6,0-1.12,0-1.75.08v-.65c.65.07,1.12.07,1.75.07h1.9v-3.3c0-.62,0-1.25-.07-1.87h.7c-.05.62-.08,1.25-.08,1.87v3.3h1.1c.6,0,1.1,0,1.72-.07v.65c-.62-.08-1.12-.08-1.72-.08h-1.1v6.25c1.05-.48,2.07-1.02,3.12-1.6l.07.5ZM533.92,148.61c0,.97-.4,1.32-1.57,1.32-.75,0-1.7-.05-2.65-.17,0-.18-.05-.4-.15-.58,1.05.18,1.95.25,2.75.25.88,0,1.07-.2,1.07-.92v-7.85h-8.07c-.65,0-1.2,0-1.87.08v-.65c.67.08,1.22.08,1.87.08h8.07v-3.67h-8.5c-.65,0-1.2,0-1.87.08v-.65c.67.07,1.23.07,1.87.07h4.55v-4.15h-3.52c-.65,0-1.2,0-1.87.08v-.65c.67.07,1.22.07,1.87.07h3.52v-1.4c0-.62,0-1.25-.07-1.87h.7c-.05.62-.07,1.25-.07,1.87v1.4h4.62c.65,0,1.2,0,1.87-.07v.65c-.67-.08-1.22-.08-1.87-.08h-4.62v4.15h5.52c.65,0,1.2,0,1.87-.07v.65c-.67-.08-1.22-.08-1.87-.08h-1.57v3.67h1.62c.65,0,1.2,0,1.87-.08v.65c-.67-.08-1.22-.08-1.87-.08h-1.62v7.95ZM528.97,146.86c-1-1.4-2.37-2.9-3.67-4.05l.42-.35c1.27,1.15,2.65,2.65,3.67,4.05l-.42.35Z"/>
      <path d="M541.5,134.74c.57-.1,1.22-.25,1.95-.45,3.47-.95,7.8-1.65,10.17-1.65,4.75,0,7.02,2.65,7.02,5.6,0,3.25-2.35,5.97-6.1,7.42-2.02.77-4.65,1.25-6.8,1.35-.02-.2-.07-.35-.22-.57,2.3-.05,4.87-.55,6.82-1.3,3.57-1.35,5.75-3.87,5.75-6.9,0-2.62-2-5.07-6.47-5.07-2.27,0-6.55.67-10.05,1.62-.72.2-1.27.38-1.85.6l-.22-.65Z"/>
    </g>
  </g>
</svg>