<?xml version="1.0" encoding="UTF-8"?>
<svg id="_レイヤー_2" data-name="レイヤー 2" xmlns="http://www.w3.org/2000/svg" viewBox="0 0 343.2 60.82">
  <defs>
    <style>
      .cls-1 {
        fill: none;
        stroke: #000;
        stroke-miterlimit: 10;
      }
    </style>
  </defs>
  <g id="_レイヤー_1-2" data-name="レイヤー 1">
    <g>
      <path d="M164.03,24.81c0,15.47-8.42,25.2-21.81,25.2s-21.81-9.47-21.81-24.75S128.84,0,142.22,0s21.81,9.47,21.81,24.81ZM162.53,24.81c0-14.56-7.57-23.44-20.31-23.44s-20.31,9.01-20.31,23.9,7.57,23.37,20.31,23.37,20.31-8.94,20.31-23.83Z"/>
      <path d="M205.62,44.27c1.04,1.7,2.15,3.46,3.46,5.09h-2.68c-.65-1.83-1.57-3.46-2.61-5.09l-11.49-18.09h-14.17v18.28c0,1.63,0,3.26.2,4.9h-1.83c.13-1.63.13-3.26.13-4.9V5.42c0-3.07-.07-3.85-.2-4.9,1.44.13,2.74.2,5.03.2h9.73c9.47,0,14.69,4.31,14.69,12.21,0,6.99-3.72,11.62-12.01,12.93l11.75,18.41ZM189.89,24.88c9.47,0,14.49-4.11,14.49-11.88,0-7.18-4.7-10.9-13.45-10.9h-12.8v22.79h11.75Z"/>
      <path d="M222.08.72c-.2,1.63-.2,3.26-.2,4.9v38.85c0,1.63,0,3.26.2,4.9h-1.89c.2-1.63.2-3.26.2-4.9V5.61c0-1.63,0-3.26-.2-4.9h1.89Z"/>
      <path d="M275.03,41.46c0,1.63.07,3.33.2,4.9-6.79,2.61-12.08,3.66-18.09,3.66-13.78,0-22-9.47-22-25.27,0-14.69,8.62-24.68,21.35-24.68,5.35,0,9.66,1.18,13.12,3.72,1.89,1.37,3.59,3.07,5.16,5.16l-1.5,1.18c-1.24-2.09-2.74-3.72-4.51-5.09-3.2-2.48-7.25-3.59-12.34-3.59-11.88,0-19.78,9.21-19.78,23.31,0,15.15,7.44,23.9,20.5,23.9,5.03,0,10.77-1.11,16.39-3.13v-17.24h-10.77c-1.63,0-2.94.07-4.96.2v-1.76c2.02.13,3.33.2,4.96.2h7.51c1.63,0,2.94-.07,4.96-.2-.13,2.15-.2,3.4-.2,4.96v9.79Z"/>
      <path d="M290.51.72c-.2,1.63-.2,3.26-.2,4.9v38.85c0,1.63,0,3.26.2,4.9h-1.89c.2-1.63.2-3.26.2-4.9V5.61c0-1.63,0-3.26-.2-4.9h1.89Z"/>
      <path d="M343,44.46c0,1.63,0,3.26.2,4.9h-2.09c-.85-1.76-1.83-3.26-3-4.9l-27.49-38.85c-.91-1.24-1.76-2.48-2.74-3.72v42.57c0,1.63,0,3.26.2,4.9h-1.89c.2-1.63.2-3.26.2-4.9V5.61c0-1.63,0-3.26-.2-4.9h2.87c.98,1.63,2.09,3.26,3.26,4.9l29.19,41.2V5.61c0-1.63,0-3.26-.2-4.9h1.89c-.2,1.63-.2,3.26-.2,4.9v38.85Z"/>
    </g>
    <polyline class="cls-1" points="106 25.04 41.25 25.04 .33 60.44"/>
  </g>
</svg>