<?xml version="1.0" encoding="UTF-8"?>
<svg id="_レイヤー_2" data-name="レイヤー 2" xmlns="http://www.w3.org/2000/svg" viewBox="0 0 568.09 643.62">
  <defs>
    <style>
      .cls-1 {
        fill: none;
      }

      .cls-1, .cls-2, .cls-3 {
        stroke: #000;
        stroke-miterlimit: 10;
      }

      .cls-2 {
        fill: #f6f3ee;
      }
    </style>
  </defs>
  <g id="_レイヤー_1-2" data-name="レイヤー 1">
    <rect class="cls-1" x="2.9" y="611.53" width="29.18" height="29.18" rx="3.91" ry="3.91" transform="translate(162.65 16.81) rotate(15)"/>
    <rect class="cls-3" x="8.62" y="617.25" width="17.75" height="17.75" rx="2.28" ry="2.28" transform="translate(162.65 16.81) rotate(15)"/>
    <g>
      <rect class="cls-2" x="23.45" y="413.31" width="327.61" height="31.58" rx="2.57" ry="2.57" transform="translate(-258.73 286.63) rotate(-48.71)"/>
      <rect class="cls-2" x="245.96" y="184.93" width="290.5" height="23.75" transform="translate(-14.82 360.88) rotate(-48.71)"/>
      <rect class="cls-3" x="473.54" y="36.66" width="75.99" height="43.88" transform="translate(129.94 404.28) rotate(-48.71)"/>
      <rect class="cls-3" x="534.52" y="-6.21" width="10.59" height="64.08" transform="translate(164.19 414.38) rotate(-48.71)"/>
      <rect class="cls-2" x="62.03" y="541.8" width="21.63" height="38.44" rx="2.56" ry="2.56" transform="translate(-396.75 245.53) rotate(-48.71)"/>
      <path class="cls-3" d="M42.36,570.14l-25.98,50.04c-1.04,2-.58,4.46,1.12,5.95l1.03.91c1.79,1.57,4.44,1.63,6.29.15l43.24-34.46,10.66-12.14-25.7-22.57-10.66,12.14Z"/>
    </g>
  </g>
</svg>