<?xml version="1.0" encoding="UTF-8"?>
<svg id="_レイヤー_2" data-name="レイヤー 2" xmlns="http://www.w3.org/2000/svg" viewBox="0 0 388.04 407.77">
  <defs>
    <style>
      .cls-1, .cls-2 {
        fill: #fff;
      }

      .cls-3 {
        stroke-width: 2px;
      }

      .cls-3, .cls-4 {
        fill: none;
      }

      .cls-3, .cls-4, .cls-2 {
        stroke: #fff;
        stroke-miterlimit: 10;
      }

      .cls-2 {
        stroke-width: 3px;
      }
    </style>
  </defs>
  <g id="_レイヤー_1-2" data-name="レイヤー 1">
    <g>
      <path class="cls-1" d="M0,307.59v-80.86H11.58v36.91h.23l16.92-36.91h11.58l-15.79,32.37,18.74,48.49h-12.26l-13.17-35.89-6.25,11.7v24.19H0Z"/>
      <path class="cls-4" d="M47.7,245.81c0-3.25,.57-6.13,1.7-8.63,1.14-2.5,2.65-4.58,4.54-6.25,1.82-1.59,3.88-2.8,6.19-3.63,2.31-.83,4.64-1.25,6.98-1.25s4.67,.42,6.98,1.25c2.31,.83,4.41,2.04,6.3,3.63,1.82,1.67,3.29,3.75,4.43,6.25,1.14,2.5,1.7,5.38,1.7,8.63v42.7c0,3.41-.57,6.32-1.7,8.74-1.14,2.42-2.61,4.43-4.43,6.02-1.89,1.67-3.99,2.92-6.3,3.75-2.31,.83-4.64,1.25-6.98,1.25s-4.68-.42-6.98-1.25c-2.31-.83-4.37-2.08-6.19-3.75-1.89-1.59-3.41-3.6-4.54-6.02-1.14-2.42-1.7-5.34-1.7-8.74v-42.7Zm11.58,42.7c0,2.8,.78,4.87,2.33,6.19,1.55,1.33,3.39,1.99,5.51,1.99s3.96-.66,5.51-1.99c1.55-1.32,2.33-3.39,2.33-6.19v-42.7c0-2.8-.78-4.86-2.33-6.19-1.55-1.32-3.39-1.99-5.51-1.99s-3.96,.66-5.51,1.99c-1.55,1.33-2.33,3.39-2.33,6.19v42.7Z"/>
      <path class="cls-1" d="M96.76,307.59v-80.86h16.92c3.71,0,6.87,.57,9.48,1.7,2.61,1.14,4.75,2.65,6.42,4.54,1.66,1.89,2.86,4.07,3.58,6.53,.72,2.46,1.08,5.02,1.08,7.67v2.95c0,2.2-.17,4.05-.51,5.56-.34,1.52-.85,2.84-1.53,3.97-1.29,2.12-3.26,3.94-5.91,5.45,2.73,1.29,4.73,3.18,6.02,5.68,1.29,2.5,1.93,5.91,1.93,10.22v4.54c0,7.12-1.72,12.57-5.17,16.35-3.45,3.79-8.95,5.68-16.52,5.68h-15.79Zm11.58-69.96v22.26h5.22c3.86,0,6.45-.97,7.78-2.9,1.32-1.93,1.99-4.75,1.99-8.46s-.74-6.36-2.21-8.18-4.15-2.73-8.01-2.73h-4.77Zm0,32.48v25.89h5c2.35,0,4.18-.34,5.51-1.02,1.32-.68,2.33-1.63,3.01-2.84s1.1-2.65,1.25-4.32c.15-1.66,.23-3.48,.23-5.45s-.11-3.82-.34-5.34c-.23-1.51-.68-2.8-1.36-3.86-.76-1.06-1.78-1.83-3.07-2.33-1.29-.49-2.99-.74-5.11-.74h-5.11Z"/>
      <path class="cls-1" d="M139.91,307.59l18.06-80.86h9.65l18.06,80.86h-11.58l-3.41-17.38h-15.79l-3.41,17.38h-11.58Zm28.62-28.28l-5.68-29.3h-.23l-5.68,29.3h11.58Z"/>
      <path class="cls-4" d="M202.14,307.59v-34.18l-15.9-46.68h12.26l9.31,32.14h.23l9.31-32.14h12.27l-15.9,46.68v34.18h-11.58Z"/>
      <path class="cls-1" d="M230.19,307.59l18.06-80.86h9.65l18.06,80.86h-11.58l-3.41-17.38h-15.79l-3.41,17.38h-11.58Zm28.62-28.28l-5.68-29.3h-.23l-5.68,29.3h11.58Z"/>
      <path class="cls-1" d="M319.11,250.01h-11.58v-2.61c0-2.65-.62-4.94-1.87-6.87-1.25-1.93-3.35-2.9-6.3-2.9-1.59,0-2.88,.3-3.86,.91-.98,.61-1.78,1.36-2.38,2.27-.61,.98-1.02,2.1-1.25,3.35-.23,1.25-.34,2.56-.34,3.92,0,1.59,.06,2.92,.17,3.98,.11,1.06,.4,2.01,.85,2.84,.45,.83,1.12,1.55,1.99,2.16,.87,.61,2.06,1.21,3.58,1.82l8.86,3.52c2.57,.98,4.66,2.14,6.25,3.46,1.59,1.33,2.84,2.86,3.75,4.6,.83,1.82,1.4,3.88,1.7,6.19,.3,2.31,.46,4.94,.46,7.89,0,3.41-.34,6.57-1.02,9.48-.68,2.92-1.78,5.39-3.29,7.44-1.59,2.12-3.67,3.79-6.25,5-2.58,1.21-5.72,1.82-9.43,1.82-2.8,0-5.41-.49-7.84-1.48-2.42-.98-4.5-2.35-6.25-4.09-1.74-1.74-3.12-3.77-4.14-6.08-1.02-2.31-1.53-4.83-1.53-7.55v-4.32h11.58v3.63c0,2.12,.62,4.03,1.87,5.73,1.25,1.7,3.35,2.56,6.3,2.56,1.97,0,3.5-.28,4.6-.85,1.1-.57,1.95-1.38,2.56-2.44,.6-1.06,.96-2.33,1.08-3.8,.11-1.48,.17-3.12,.17-4.94,0-2.12-.08-3.86-.23-5.22-.15-1.36-.45-2.46-.91-3.29-.53-.83-1.23-1.51-2.1-2.04-.87-.53-2.03-1.1-3.46-1.7l-8.29-3.41c-5-2.04-8.35-4.75-10.05-8.12s-2.56-7.59-2.56-12.66c0-3.03,.42-5.91,1.25-8.63,.83-2.73,2.08-5.07,3.75-7.04,1.59-1.97,3.61-3.54,6.08-4.71,2.46-1.17,5.39-1.76,8.8-1.76,2.88,0,5.51,.53,7.89,1.59,2.39,1.06,4.45,2.46,6.19,4.2,3.48,3.63,5.22,7.8,5.22,12.49v5.68Z"/>
      <path class="cls-1" d="M327.74,307.59v-80.86h11.58v34.64h14.31v-34.64h11.58v80.86h-11.58v-36h-14.31v36h-11.58Z"/>
      <path class="cls-1" d="M376.46,307.59v-80.86h11.58v80.86h-11.58Z"/>
      <path class="cls-1" d="M111.63,406.59v-34.18l-15.9-46.68h12.27l9.31,32.14h.23l9.31-32.14h12.26l-15.9,46.68v34.18h-11.58Z"/>
      <path class="cls-4" d="M182.38,325.73v62.69c0,2.65-.47,5.09-1.42,7.33-.95,2.23-2.29,4.22-4.03,5.96-1.74,1.74-3.75,3.11-6.02,4.09s-4.7,1.48-7.27,1.48-4.98-.49-7.21-1.48c-2.23-.98-4.22-2.35-5.96-4.09-1.74-1.74-3.1-3.73-4.09-5.96-.98-2.23-1.48-4.67-1.48-7.33v-62.69h11.58v61.55c0,2.88,.68,5,2.04,6.36,1.36,1.36,3.07,2.04,5.11,2.04s3.75-.68,5.11-2.04c1.36-1.36,2.04-3.48,2.04-6.36v-61.55h11.58Z"/>
      <path class="cls-1" d="M193.28,406.59v-80.86h11.13l14.88,42.81h.23l14.76-42.81h11.24v80.86h-11.58v-49.17h-.23l-11.47,34.75h-5.79l-11.36-34.75h-.23v49.17h-11.58Z"/>
      <path class="cls-1" d="M256.43,406.59v-80.86h34.52v10.9h-22.94v23.73h19.99v10.9h-19.99v23.74h22.94v11.58h-34.52Z"/>
    </g>
    <g>
      <path class="cls-1" d="M133.92,81.54V47.36L118.02,.68h12.27l9.31,32.14h.23L149.14,.68h12.27l-15.9,46.67v34.18h-11.58Z"/>
      <path class="cls-1" d="M166.52,19.76c0-3.25,.57-6.13,1.7-8.63s2.65-4.58,4.54-6.25c1.82-1.59,3.88-2.8,6.19-3.63,2.31-.83,4.64-1.25,6.98-1.25s4.67,.42,6.98,1.25c2.31,.83,4.41,2.04,6.3,3.63,1.82,1.67,3.29,3.75,4.43,6.25,1.14,2.5,1.7,5.38,1.7,8.63V62.46c0,3.41-.57,6.32-1.7,8.75-1.14,2.42-2.61,4.43-4.43,6.02-1.89,1.67-3.99,2.92-6.3,3.75-2.31,.83-4.64,1.25-6.98,1.25s-4.68-.42-6.98-1.25c-2.31-.83-4.37-2.08-6.19-3.75-1.89-1.59-3.41-3.59-4.54-6.02-1.14-2.42-1.7-5.34-1.7-8.75V19.76Zm11.58,42.7c0,2.8,.78,4.87,2.33,6.19,1.55,1.33,3.39,1.99,5.51,1.99s3.96-.66,5.51-1.99c1.55-1.32,2.33-3.39,2.33-6.19V19.76c0-2.8-.78-4.86-2.33-6.19-1.55-1.32-3.39-1.99-5.51-1.99s-3.96,.66-5.51,1.99c-1.55,1.33-2.33,3.39-2.33,6.19V62.46Z"/>
      <path class="cls-1" d="M253.05,.68V63.37c0,2.65-.47,5.09-1.42,7.32-.95,2.23-2.29,4.22-4.03,5.96-1.74,1.74-3.75,3.11-6.02,4.09s-4.7,1.48-7.27,1.48-4.98-.49-7.21-1.48c-2.23-.98-4.22-2.35-5.96-4.09-1.74-1.74-3.1-3.73-4.09-5.96-.98-2.23-1.48-4.67-1.48-7.32V.68h11.58V62.23c0,2.88,.68,5,2.04,6.36s3.07,2.04,5.11,2.04,3.75-.68,5.11-2.04,2.04-3.48,2.04-6.36V.68h11.58Z"/>
    </g>
    <line class="cls-2" x1="191.69" y1="199.74" x2="191.69" y2="175.52"/>
    <rect class="cls-3" x="151.08" y="125.52" width="80" height="50" rx="7.23" ry="7.23"/>
    <polyline class="cls-3" points="229.2 129.12 191.21 151.89 153.23 129.12"/>
    <line class="cls-2" x1="191.21" y1="125.52" x2="191.21" y2="95.74"/>
  </g>
</svg>